<?xml version="1.0" encoding="UTF-8" standalone="no"?>
<!-- Generator: Adobe Illustrator 21.0.2, SVG Export Plug-In . SVG Version: 6.00 Build 0)  -->

<svg
   xmlns:dc="http://purl.org/dc/elements/1.1/"
   xmlns:cc="http://creativecommons.org/ns#"
   xmlns:rdf="http://www.w3.org/1999/02/22-rdf-syntax-ns#"
   xmlns:svg="http://www.w3.org/2000/svg"
   xmlns="http://www.w3.org/2000/svg"
   xmlns:sodipodi="http://sodipodi.sourceforge.net/DTD/sodipodi-0.dtd"
   xmlns:inkscape="http://www.inkscape.org/namespaces/inkscape"
   version="1.1"
   x="0px"
   y="0px"
   viewBox="0 0 45 45"
   style="enable-background:new 0 0 45 45;"
   xml:space="preserve"
   id="svg4018"
   sodipodi:docname="Ontspanning.svg"
   inkscape:version="0.92.0 r15299"><metadata
     id="metadata4024"><rdf:RDF><cc:Work
         rdf:about=""><dc:format>image/svg+xml</dc:format><dc:type
           rdf:resource="http://purl.org/dc/dcmitype/StillImage" /><dc:title></dc:title></cc:Work></rdf:RDF></metadata><defs
     id="defs4022" /><sodipodi:namedview
     pagecolor="#ffffff"
     bordercolor="#666666"
     borderopacity="1"
     objecttolerance="10"
     gridtolerance="10"
     guidetolerance="10"
     inkscape:pageopacity="0"
     inkscape:pageshadow="2"
     inkscape:window-width="1366"
     inkscape:window-height="705"
     id="namedview4020"
     showgrid="false"
     inkscape:zoom="5.2444444"
     inkscape:cx="22.5"
     inkscape:cy="22.5"
     inkscape:window-x="-8"
     inkscape:window-y="-8"
     inkscape:window-maximized="1"
     inkscape:current-layer="svg4018" /><style
     type="text/css"
     id="style3967">
	.st0{display:none;}
	.st1{display:inline;fill:#4a4a49;}
	.st2{fill:#4a4a49;}
</style><g
     id="Laag_1"
     class="st0"><path
       class="st1"
       d="M18.8,21.8H6.9c-1.2,0-2.1-1-2.1-2.1V7.7c0-1.2,1-2.1,2.1-2.1h11.9c1.2,0,2.1,1,2.1,2.1v11.9   C20.9,20.8,20,21.8,18.8,21.8z M6.9,6.9C6.4,6.9,6,7.3,6,7.7v11.9c0,0.5,0.4,0.8,0.8,0.8h11.9c0.5,0,0.8-0.4,0.8-0.8V7.7   c0-0.5-0.4-0.8-0.8-0.8H6.9z"
       id="path3969" /><path
       class="st1"
       d="M18.8,40.1H6.9c-1.2,0-2.1-1-2.1-2.1V26c0-1.2,1-2.1,2.1-2.1h11.9c1.2,0,2.1,1,2.1,2.1V38   C20.9,39.1,20,40.1,18.8,40.1z M6.9,25.2C6.4,25.2,6,25.6,6,26V38c0,0.5,0.4,0.8,0.8,0.8h11.9c0.5,0,0.8-0.4,0.8-0.8V26   c0-0.5-0.4-0.8-0.8-0.8H6.9z"
       id="path3971" /><path
       class="st1"
       d="M37.5,21.8H25.5c-1.2,0-2.1-1-2.1-2.1V7.7c0-1.2,1-2.1,2.1-2.1h11.9c1.2,0,2.1,1,2.1,2.1v11.9   C39.6,20.8,38.7,21.8,37.5,21.8z M25.5,6.9c-0.5,0-0.8,0.4-0.8,0.8v11.9c0,0.5,0.4,0.8,0.8,0.8h11.9c0.5,0,0.8-0.4,0.8-0.8V7.7   c0-0.5-0.4-0.8-0.8-0.8H25.5z"
       id="path3973" /><path
       class="st1"
       d="M37.5,40.1H25.5c-1.2,0-2.1-1-2.1-2.1V26c0-1.2,1-2.1,2.1-2.1h11.9c1.2,0,2.1,1,2.1,2.1V38   C39.6,39.1,38.7,40.1,37.5,40.1z M25.5,25.2c-0.5,0-0.8,0.4-0.8,0.8V38c0,0.5,0.4,0.8,0.8,0.8h11.9c0.5,0,0.8-0.4,0.8-0.8V26   c0-0.5-0.4-0.8-0.8-0.8H25.5z"
       id="path3975" /></g><g
     id="Laag_2"
     class="st0"><path
       class="st1"
       d="M27.7,40H16.9c-1.8,0-3.2-1.4-3.2-3.2v-5.3H8.3c-1.8,0-3.2-1.4-3.2-3.2V17.4c0-1.8,1.4-3.2,3.2-3.2h5.3V8.9   c0-1.8,1.4-3.2,3.2-3.2h10.8c1.8,0,3.2,1.4,3.2,3.2v5.3h5.3c1.8,0,3.2,1.4,3.2,3.2v10.8c0,1.8-1.4,3.2-3.2,3.2h-5.3v5.3   C30.9,38.6,29.5,40,27.7,40z M8.3,15.4c-1.1,0-2,0.9-2,2v10.8c0,1.1,0.9,2,2,2h5.9c0.3,0,0.6,0.3,0.6,0.6v5.9c0,1.1,0.9,2,2,2h10.8   c1.1,0,2-0.9,2-2v-5.9c0-0.3,0.3-0.6,0.6-0.6h5.9c1.1,0,2-0.9,2-2V17.4c0-1.1-0.9-2-2-2h-5.9c-0.3,0-0.6-0.3-0.6-0.6V8.9   c0-1.1-0.9-2-2-2H16.9c-1.1,0-2,0.9-2,2v5.9c0,0.3-0.3,0.6-0.6,0.6H8.3z"
       id="path3978" /><path
       class="st1"
       d="M22.9,29.4C22.9,29.4,22.8,29.4,22.9,29.4c-0.3,0-0.5-0.2-0.6-0.5l-2.7-10.3l-1.5,3.4   c-0.1,0.2-0.3,0.4-0.6,0.4H9.4c-0.3,0-0.6-0.3-0.6-0.6s0.3-0.6,0.6-0.6h7.8l2-4.7c0.1-0.2,0.3-0.4,0.6-0.4c0.3,0,0.5,0.2,0.5,0.5   l2.6,9.9l2.6-8.2c0.1-0.2,0.3-0.4,0.6-0.4c0.3,0,0.5,0.1,0.6,0.4l1.2,2.9h7.5c0.3,0,0.6,0.3,0.6,0.6c0,0.3-0.3,0.6-0.6,0.6h-7.9   c-0.2,0-0.5-0.1-0.6-0.4l-0.7-1.7L23.4,29C23.4,29.3,23.1,29.4,22.9,29.4z"
       id="path3980" /></g><g
     id="Laag_3"
     class="st0"><path
       class="st1"
       d="M36.3,36.2h-28c-1.8,0-3.2-1.4-3.2-3.2V22.1c0-1.8,1.4-3.2,3.2-3.2h28c1.8,0,3.2,1.4,3.2,3.2V33   C39.6,34.7,38.1,36.2,36.3,36.2z M8.4,20.1c-1.1,0-2,0.9-2,2V33c0,1.1,0.9,2,2,2h28c1.1,0,2-0.9,2-2V22.1c0-1.1-0.9-2-2-2H8.4z"
       id="path3983" /><path
       class="st1"
       d="M29.2,9.9c3.7,0,6.7,3,6.7,6.7c0,1-0.2,2-0.7,2.9h1.1V20c0.5-1,0.8-2.2,0.8-3.4c0-4.4-3.5-7.9-7.9-7.9   c-3.4,0-6.3,2.1-7.4,5.1c0.4,0.2,0.7,0.4,1,0.7C23.7,11.8,26.2,9.9,29.2,9.9z"
       id="path3985" /><path
       class="st1"
       d="M24.6,16.2c0,0,0,0.1,0,0.1c0.6,0.9,1,2,1.1,3.1h1.1c-0.6-0.5-1-1.1-1.2-1.7h1.2c0.2,0,0.4-0.2,0.4-0.4   c0-0.2-0.2-0.4-0.4-0.4h-1.4c0-0.1,0-0.2,0-0.4c0,0,0,0,0,0l0,0c0-0.1,0-0.2,0-0.4h1.4c0.2,0,0.4-0.2,0.4-0.4   c0-0.2-0.2-0.4-0.4-0.4h-1.2c0.5-1.5,1.9-2.6,3.6-2.6c0.4,0,0.8,0.1,1.2,0.2l0,0c0,0,0.1,0,0.1,0c0.2,0,0.4-0.2,0.4-0.4   c0-0.2-0.1-0.3-0.3-0.4v0c-0.5-0.2-1-0.2-1.5-0.2c-2.1,0-3.9,1.4-4.4,3.4h-0.9C24.1,15.7,24.3,15.9,24.6,16.2L24.6,16.2z"
       id="path3987" /><path
       class="st1"
       d="M11.8,19.5c0.4-3.3,3.2-5.9,6.6-5.9s6.2,2.6,6.6,5.9h1.2c-0.4-4-3.8-7.1-7.9-7.1s-7.5,3.1-7.9,7.1H11.8z"
       id="path3989" /><path
       class="st1"
       d="M16.5,19.5c0-0.2-0.2-0.4-0.4-0.4h-1.2c0.5-1.5,1.9-2.6,3.6-2.6c0.4,0,0.8,0.1,1.2,0.2l0,0c0,0,0.1,0,0.1,0   c0.2,0,0.4-0.2,0.4-0.4c0-0.2-0.1-0.3-0.3-0.4v0c-0.5-0.2-1-0.2-1.5-0.2c-2.1,0-3.9,1.4-4.4,3.4h-1.2c-0.2,0-0.4,0.2-0.4,0.4H16.5z   "
       id="path3991" /></g><g
     id="Laag_4"><path
       class="st2"
       d="M22,27.7c-6.3,0-11.4-5.1-11.4-11.4C10.6,10,15.7,4.9,22,4.9S33.5,10,33.5,16.3C33.5,22.6,28.3,27.7,22,27.7z    M22,6.1c-5.6,0-10.2,4.6-10.2,10.2c0,5.6,4.6,10.2,10.2,10.2S32.2,22,32.2,16.3C32.2,10.7,27.7,6.1,22,6.1z"
       id="path3994" /><path
       class="st2"
       d="M21,35.5c-0.3,0-0.6-0.3-0.6-0.6v-4.7c0-0.3,0.3-0.6,0.6-0.6c0.3,0,0.6,0.3,0.6,0.6v4.7   C21.6,35.2,21.4,35.5,21,35.5z"
       id="path3996" /><path
       class="st2"
       d="M23.8,39.5c-0.3,0-0.6-0.3-0.6-0.6v-8.7c0-0.3,0.3-0.6,0.6-0.6s0.6,0.3,0.6,0.6v8.7   C24.4,39.2,24.1,39.5,23.8,39.5z"
       id="path3998" /><path
       class="st2"
       d="M24.7,27.4c-0.1,0-0.2,0-0.3-0.1c-0.3-0.2-0.4-0.5-0.2-0.8c5.1-9.4,2.8-16.9-0.8-20.5c-0.2-0.2-0.2-0.6,0-0.9   C23.6,5,24,5,24.2,5.2c3.8,3.9,6.3,11.9,1,21.9C25.1,27.3,24.9,27.4,24.7,27.4z"
       id="path4000" /><path
       class="st2"
       d="M27,10.8c-1.5,0-3.1-0.5-4.7-1C21,9.4,19.7,9,18.7,8.9c-3-0.1-4.3,0.6-4.4,0.6c-0.3,0.2-0.7,0-0.8-0.3   c-0.2-0.3,0-0.7,0.2-0.8c0.1,0,1.6-0.8,5-0.8c1.1,0,2.5,0.5,4,0.9c3.2,1,5.6,1.6,6.5-0.2C29.3,8.1,29.7,8,30,8.2   c0.3,0.2,0.4,0.5,0.3,0.8C29.5,10.4,28.4,10.8,27,10.8z"
       id="path4002" /><path
       class="st2"
       d="M11.3,18.1c-0.2,0-0.3-0.1-0.5-0.2c-0.2-0.3-0.2-0.6,0.1-0.9c5.2-4.3,13.7-5.9,21.7-4.2   c0.3,0.1,0.5,0.4,0.5,0.7c-0.1,0.3-0.4,0.5-0.7,0.5c-5.8-1.3-14.7-1-20.7,3.9C11.6,18.1,11.4,18.1,11.3,18.1z"
       id="path4004" /><path
       class="st2"
       d="M15.1,25.2c-0.2,0-0.4-0.1-0.6-0.2c-0.3-0.2-0.3-0.6-0.1-0.9c0.2-0.2,0.5-0.3,0.7-0.2c0.1,0,0.8-0.2,2.5-1.6   c0.7-0.6,1.5-1.4,2.3-2.3c2.5-2.6,5.4-5.7,7.8-5.1c3.2,0.8,3.7,1.6,4.7,5.7c0.1,0.3-0.1,0.7-0.5,0.7c-0.3,0.1-0.7-0.1-0.7-0.5   c-0.9-4-1.3-4.3-3.8-4.8c-1.8-0.4-4.6,2.6-6.6,4.7c-0.9,0.9-1.7,1.8-2.4,2.4C17,24.5,15.9,25.2,15.1,25.2z M15.3,24   C15.3,24,15.3,24,15.3,24C15.3,24,15.3,24,15.3,24z M15.3,24L15.3,24L15.3,24z"
       id="path4006" /></g><g
     id="Laag_5"
     class="st0"><path
       class="st1"
       d="M35.3,20.9l-2.5,1.1h1.5v8.9c0,1.1-4.6,2.8-11.7,2.8S10.8,32,10.8,30.9v-8.9h1.3l-2.4-1   c-0.1,0.1-0.1,0.2-0.1,0.4v9.5c0,2.6,6.5,4,12.9,4s12.9-1.4,12.9-4v-9.5C35.5,21.1,35.4,21,35.3,20.9z"
       id="path4009" /><path
       class="st1"
       d="M22.6,27c0,0-0.1,0-0.1,0c-0.2,0-0.3-0.1-0.4-0.2L2.9,19c-0.2-0.1-0.4-0.3-0.4-0.6s0.1-0.5,0.4-0.6L22,10   c0.2-0.2,0.4-0.2,0.6-0.2c0.2,0,0.3,0.1,0.4,0.2l19.1,7.8c0.2,0.1,0.4,0.3,0.4,0.6s-0.1,0.5-0.4,0.6L23,26.8   C22.9,26.9,22.7,27,22.6,27z M4.7,18.4l17.8,7.3l17.8-7.3l-17.8-7.3L4.7,18.4z"
       id="path4011" /><path
       class="st1"
       d="M39.8,27.7c-0.3,0-0.6-0.3-0.6-0.6v-7.9c0-0.3,0.3-0.6,0.6-0.6s0.6,0.3,0.6,0.6v7.9   C40.4,27.5,40.1,27.7,39.8,27.7z"
       id="path4013" /><circle
       class="st1"
       cx="39.8"
       cy="27.8"
       r="1.6"
       id="circle4015" /></g><path
     style="fill:#F4991A;stroke:#F4991A;stroke-width:0.19067797"
     d="m 20.154661,26.255162 c -0.104873,-0.03653 -0.662606,-0.199563 -1.239407,-0.362287 -0.576801,-0.162724 -1.332576,-0.471046 -1.6795,-0.685161 l -0.630772,-0.389299 1.012128,-0.925569 c 0.55667,-0.509062 2.299204,-2.209936 3.872297,-3.77972 3.413988,-3.406805 5.625,-4.857418 5.625,-3.690483 0,2.934739 -2.096235,9.339183 -3.193328,9.756297 -0.42655,0.162174 -3.349866,0.221335 -3.766418,0.07622 z"
     id="path4026"
     inkscape:connector-curvature="0" /><path
     style="fill:#F4991A;stroke:#F4991A;stroke-width:0.19067797"
     d="M 26.264368,25.064619 C 27.279269,22.7153 28.258475,18.81972 28.258475,17.13145 v -0.865849 l 0.548667,0.191266 c 0.891051,0.310622 1.383596,1.014054 1.85877,2.654616 l 0.447556,1.545211 -0.405067,0.793997 c -0.522541,1.024265 -2.515961,3.016287 -3.542443,3.539959 -0.969013,0.494353 -1.087391,0.504065 -0.90159,0.07397 z"
     id="path4028"
     inkscape:connector-curvature="0" /><path
     style="fill:#F4991A;stroke:#F4991A;stroke-width:0.19067797"
     d="m 14.352011,22.8162 c -0.893958,-0.96983 -2.014565,-3.150246 -2.208259,-4.296712 -0.158577,-0.938611 0.05016,-1.136026 2.576587,-2.436785 3.14121,-1.61729 6.001441,-2.36281 10.034409,-2.615472 l 2.121274,-0.132896 0.07943,0.680378 c 0.0766,0.656144 0.05198,0.687331 -0.691189,0.875587 -1.326431,0.336005 -2.57628,1.301004 -5.823585,4.496347 -3.048088,2.999315 -4.574194,4.295556 -5.05729,4.295556 -0.128218,0 -0.592338,-0.389701 -1.031377,-0.866003 z"
     id="path4030"
     inkscape:connector-curvature="0" /><path
     style="fill:#F4991A;stroke:#F4991A;stroke-width:0.19067797"
     d="m 31.690678,17.915946 c 0,-0.142506 -0.235964,-0.624233 -0.524364,-1.070504 -0.381787,-0.590777 -0.843269,-0.968669 -1.697211,-1.389789 -1.063754,-0.524589 -1.180187,-0.641269 -1.25177,-1.254424 l -0.07892,-0.676036 1.442448,0.118522 c 2.022363,0.166173 2.240283,0.251186 2.37538,0.92667 0.185633,0.928166 0.133449,3.358063 -0.07488,3.486818 -0.104873,0.06481 -0.190678,0.0013 -0.190678,-0.141257 z"
     id="path4032"
     inkscape:connector-curvature="0" /><path
     style="fill:#F4991A;stroke:#F4991A;stroke-width:0.19067797"
     d="m 29.239939,12.242653 c -0.695898,-0.07892 -1.282888,-0.250372 -1.379496,-0.402936 -0.27449,-0.433477 -0.197694,-0.937574 0.159684,-1.048181 0.271672,-0.08408 1.181964,-0.48793 1.791055,-0.7945969 0.128058,-0.064475 1.49814,2.0263869 1.49814,2.2862899 0,0.165691 -0.302915,0.159751 -2.069383,-0.04058 z"
     id="path4034"
     inkscape:connector-curvature="0" /><path
     style="fill:#F4991A;stroke:#F4991A;stroke-width:0.19067797"
     d="m 11.943816,15.149364 c 0.21564,-1.538513 0.878301,-3.27722 1.71557,-4.501353 0.723311,-1.0575206 0.892494,-1.1926937 1.74143,-1.3913591 1.982482,-0.4639348 3.592887,-0.3223585 6.840801,0.6013989 1.659291,0.4719282 3.155603,0.8593652 3.325138,0.8609712 0.476427,0.0045 0.743267,0.241347 0.878357,0.779587 l 0.123652,0.49267 -1.991754,0.121867 c -4.473558,0.273717 -9.368771,1.737969 -11.983564,3.584514 -0.727844,0.513997 -0.791046,0.460654 -0.64963,-0.548296 z"
     id="path4036"
     inkscape:connector-curvature="0" /><path
     style="fill:#F4991A;stroke:#F4991A;stroke-width:0.19067797"
     d="M 22.538136,8.3839643 C 20.592736,7.8066534 19.602539,7.6139416 18.484209,7.5949909 17.223557,7.5736284 17.054145,7.5333379 17.340141,7.3229024 18.067884,6.7874293 20.337627,6.2552991 21.936919,6.24521 L 23.5285,6.235169 24.129716,6.9529988 c 0.851866,1.0170962 1.530303,2.2429113 1.226613,2.2162707 -0.134222,-0.011774 -1.40241,-0.3651619 -2.818193,-0.7853052 z"
     id="path4038"
     inkscape:connector-curvature="0" /><path
     style="fill:#F4991A;stroke:#F4991A;stroke-width:0.19067797"
     d="M 26.443159,8.2849576 C 26.135152,7.6819386 25.850547,7.117709 25.810702,7.0311141 25.707281,6.8063493 27.284087,7.6215902 28.020127,8.1734325 28.767019,8.7334107 28.78588,8.8722423 28.154164,9.1600713 27.274591,9.5608312 27.03128,9.4363869 26.443159,8.2849576 Z"
     id="path4040"
     inkscape:connector-curvature="0" /></svg>