<?xml version="1.0" encoding="UTF-8" standalone="no"?>
<!-- Generator: Adobe Illustrator 21.0.2, SVG Export Plug-In . SVG Version: 6.00 Build 0)  -->

<svg
   xmlns:dc="http://purl.org/dc/elements/1.1/"
   xmlns:cc="http://creativecommons.org/ns#"
   xmlns:rdf="http://www.w3.org/1999/02/22-rdf-syntax-ns#"
   xmlns:svg="http://www.w3.org/2000/svg"
   xmlns="http://www.w3.org/2000/svg"
   xmlns:sodipodi="http://sodipodi.sourceforge.net/DTD/sodipodi-0.dtd"
   xmlns:inkscape="http://www.inkscape.org/namespaces/inkscape"
   version="1.1"
   x="0px"
   y="0px"
   viewBox="0 0 45 45"
   style="enable-background:new 0 0 45 45;"
   xml:space="preserve"
   id="svg3731"
   sodipodi:docname="Algemeen.svg"
   inkscape:version="0.92.0 r15299"><metadata
     id="metadata3737"><rdf:RDF><cc:Work
         rdf:about=""><dc:format>image/svg+xml</dc:format><dc:type
           rdf:resource="http://purl.org/dc/dcmitype/StillImage" /><dc:title></dc:title></cc:Work></rdf:RDF></metadata><defs
     id="defs3735"><inkscape:perspective
       sodipodi:type="inkscape:persp3d"
       inkscape:vp_x="0 : 22.5 : 1"
       inkscape:vp_y="0 : 1000 : 0"
       inkscape:vp_z="45 : 22.5 : 1"
       inkscape:persp3d-origin="22.5 : 15 : 1"
       id="perspective3739" /></defs><sodipodi:namedview
     pagecolor="#ffffff"
     bordercolor="#666666"
     borderopacity="1"
     objecttolerance="10"
     gridtolerance="10"
     guidetolerance="10"
     inkscape:pageopacity="0"
     inkscape:pageshadow="2"
     inkscape:window-width="1366"
     inkscape:window-height="705"
     id="namedview3733"
     showgrid="false"
     inkscape:zoom="11.911111"
     inkscape:cx="22.5"
     inkscape:cy="22.5"
     inkscape:window-x="-8"
     inkscape:window-y="-8"
     inkscape:window-maximized="1"
     inkscape:current-layer="svg3731" /><style
     type="text/css"
     id="style3680">
	.st0{fill:#4a4a49;}
	.st1{display:none;}
	.st2{display:inline;fill:#4a4a49;}
</style><g
     id="Laag_1"><path
       class="st0"
       d="M18.8,21.8H6.9c-1.2,0-2.1-1-2.1-2.1V7.7c0-1.2,1-2.1,2.1-2.1h11.9c1.2,0,2.1,1,2.1,2.1v11.9   C20.9,20.8,20,21.8,18.8,21.8z M6.9,6.9C6.4,6.9,6,7.3,6,7.7v11.9c0,0.5,0.4,0.8,0.8,0.8h11.9c0.5,0,0.8-0.4,0.8-0.8V7.7   c0-0.5-0.4-0.8-0.8-0.8H6.9z"
       id="path3682" /><path
       class="st0"
       d="M18.8,40.1H6.9c-1.2,0-2.1-1-2.1-2.1V26c0-1.2,1-2.1,2.1-2.1h11.9c1.2,0,2.1,1,2.1,2.1V38   C20.9,39.1,20,40.1,18.8,40.1z M6.9,25.2C6.4,25.2,6,25.6,6,26V38c0,0.5,0.4,0.8,0.8,0.8h11.9c0.5,0,0.8-0.4,0.8-0.8V26   c0-0.5-0.4-0.8-0.8-0.8H6.9z"
       id="path3684" /><path
       class="st0"
       d="M37.5,21.8H25.5c-1.2,0-2.1-1-2.1-2.1V7.7c0-1.2,1-2.1,2.1-2.1h11.9c1.2,0,2.1,1,2.1,2.1v11.9   C39.6,20.8,38.7,21.8,37.5,21.8z M25.5,6.9c-0.5,0-0.8,0.4-0.8,0.8v11.9c0,0.5,0.4,0.8,0.8,0.8h11.9c0.5,0,0.8-0.4,0.8-0.8V7.7   c0-0.5-0.4-0.8-0.8-0.8H25.5z"
       id="path3686" /><path
       class="st0"
       d="M37.5,40.1H25.5c-1.2,0-2.1-1-2.1-2.1V26c0-1.2,1-2.1,2.1-2.1h11.9c1.2,0,2.1,1,2.1,2.1V38   C39.6,39.1,38.7,40.1,37.5,40.1z M25.5,25.2c-0.5,0-0.8,0.4-0.8,0.8V38c0,0.5,0.4,0.8,0.8,0.8h11.9c0.5,0,0.8-0.4,0.8-0.8V26   c0-0.5-0.4-0.8-0.8-0.8H25.5z"
       id="path3688" /></g><g
     id="Laag_2"
     class="st1"><path
       class="st2"
       d="M27.7,40H16.9c-1.8,0-3.2-1.4-3.2-3.2v-5.3H8.3c-1.8,0-3.2-1.4-3.2-3.2V17.4c0-1.8,1.4-3.2,3.2-3.2h5.3V8.9   c0-1.8,1.4-3.2,3.2-3.2h10.8c1.8,0,3.2,1.4,3.2,3.2v5.3h5.3c1.8,0,3.2,1.4,3.2,3.2v10.8c0,1.8-1.4,3.2-3.2,3.2h-5.3v5.3   C30.9,38.6,29.5,40,27.7,40z M8.3,15.4c-1.1,0-2,0.9-2,2v10.8c0,1.1,0.9,2,2,2h5.9c0.3,0,0.6,0.3,0.6,0.6v5.9c0,1.1,0.9,2,2,2h10.8   c1.1,0,2-0.9,2-2v-5.9c0-0.3,0.3-0.6,0.6-0.6h5.9c1.1,0,2-0.9,2-2V17.4c0-1.1-0.9-2-2-2h-5.9c-0.3,0-0.6-0.3-0.6-0.6V8.9   c0-1.1-0.9-2-2-2H16.9c-1.1,0-2,0.9-2,2v5.9c0,0.3-0.3,0.6-0.6,0.6H8.3z"
       id="path3691" /><path
       class="st2"
       d="M22.9,29.4C22.9,29.4,22.8,29.4,22.9,29.4c-0.3,0-0.5-0.2-0.6-0.5l-2.7-10.3l-1.5,3.4   c-0.1,0.2-0.3,0.4-0.6,0.4H9.4c-0.3,0-0.6-0.3-0.6-0.6s0.3-0.6,0.6-0.6h7.8l2-4.7c0.1-0.2,0.3-0.4,0.6-0.4c0.3,0,0.5,0.2,0.5,0.5   l2.6,9.9l2.6-8.2c0.1-0.2,0.3-0.4,0.6-0.4c0.3,0,0.5,0.1,0.6,0.4l1.2,2.9h7.5c0.3,0,0.6,0.3,0.6,0.6c0,0.3-0.3,0.6-0.6,0.6h-7.9   c-0.2,0-0.5-0.1-0.6-0.4l-0.7-1.7L23.4,29C23.4,29.3,23.1,29.4,22.9,29.4z"
       id="path3693" /></g><g
     id="Laag_3"
     class="st1"><path
       class="st2"
       d="M36.3,36.2h-28c-1.8,0-3.2-1.4-3.2-3.2V22.1c0-1.8,1.4-3.2,3.2-3.2h28c1.8,0,3.2,1.4,3.2,3.2V33   C39.6,34.7,38.1,36.2,36.3,36.2z M8.4,20.1c-1.1,0-2,0.9-2,2V33c0,1.1,0.9,2,2,2h28c1.1,0,2-0.9,2-2V22.1c0-1.1-0.9-2-2-2H8.4z"
       id="path3696" /><path
       class="st2"
       d="M29.2,9.9c3.7,0,6.7,3,6.7,6.7c0,1-0.2,2-0.7,2.9h1.1V20c0.5-1,0.8-2.2,0.8-3.4c0-4.4-3.5-7.9-7.9-7.9   c-3.4,0-6.3,2.1-7.4,5.1c0.4,0.2,0.7,0.4,1,0.7C23.7,11.8,26.2,9.9,29.2,9.9z"
       id="path3698" /><path
       class="st2"
       d="M24.6,16.2c0,0,0,0.1,0,0.1c0.6,0.9,1,2,1.1,3.1h1.1c-0.6-0.5-1-1.1-1.2-1.7h1.2c0.2,0,0.4-0.2,0.4-0.4   c0-0.2-0.2-0.4-0.4-0.4h-1.4c0-0.1,0-0.2,0-0.4c0,0,0,0,0,0l0,0c0-0.1,0-0.2,0-0.4h1.4c0.2,0,0.4-0.2,0.4-0.4   c0-0.2-0.2-0.4-0.4-0.4h-1.2c0.5-1.5,1.9-2.6,3.6-2.6c0.4,0,0.8,0.1,1.2,0.2l0,0c0,0,0.1,0,0.1,0c0.2,0,0.4-0.2,0.4-0.4   c0-0.2-0.1-0.3-0.3-0.4v0c-0.5-0.2-1-0.2-1.5-0.2c-2.1,0-3.9,1.4-4.4,3.4h-0.9C24.1,15.7,24.3,15.9,24.6,16.2L24.6,16.2z"
       id="path3700" /><path
       class="st2"
       d="M11.8,19.5c0.4-3.3,3.2-5.9,6.6-5.9s6.2,2.6,6.6,5.9h1.2c-0.4-4-3.8-7.1-7.9-7.1s-7.5,3.1-7.9,7.1H11.8z"
       id="path3702" /><path
       class="st2"
       d="M16.5,19.5c0-0.2-0.2-0.4-0.4-0.4h-1.2c0.5-1.5,1.9-2.6,3.6-2.6c0.4,0,0.8,0.1,1.2,0.2l0,0c0,0,0.1,0,0.1,0   c0.2,0,0.4-0.2,0.4-0.4c0-0.2-0.1-0.3-0.3-0.4v0c-0.5-0.2-1-0.2-1.5-0.2c-2.1,0-3.9,1.4-4.4,3.4h-1.2c-0.2,0-0.4,0.2-0.4,0.4H16.5z   "
       id="path3704" /></g><g
     id="Laag_4"
     class="st1"><path
       class="st2"
       d="M22,27.7c-6.3,0-11.4-5.1-11.4-11.4C10.6,10,15.7,4.9,22,4.9S33.5,10,33.5,16.3C33.5,22.6,28.3,27.7,22,27.7z    M22,6.1c-5.6,0-10.2,4.6-10.2,10.2c0,5.6,4.6,10.2,10.2,10.2S32.2,22,32.2,16.3C32.2,10.7,27.7,6.1,22,6.1z"
       id="path3707" /><path
       class="st2"
       d="M21,35.5c-0.3,0-0.6-0.3-0.6-0.6v-4.7c0-0.3,0.3-0.6,0.6-0.6c0.3,0,0.6,0.3,0.6,0.6v4.7   C21.6,35.2,21.4,35.5,21,35.5z"
       id="path3709" /><path
       class="st2"
       d="M23.8,39.5c-0.3,0-0.6-0.3-0.6-0.6v-8.7c0-0.3,0.3-0.6,0.6-0.6s0.6,0.3,0.6,0.6v8.7   C24.4,39.2,24.1,39.5,23.8,39.5z"
       id="path3711" /><path
       class="st2"
       d="M24.7,27.4c-0.1,0-0.2,0-0.3-0.1c-0.3-0.2-0.4-0.5-0.2-0.8c5.1-9.4,2.8-16.9-0.8-20.5c-0.2-0.2-0.2-0.6,0-0.9   C23.6,5,24,5,24.2,5.2c3.8,3.9,6.3,11.9,1,21.9C25.1,27.3,24.9,27.4,24.7,27.4z"
       id="path3713" /><path
       class="st2"
       d="M27,10.8c-1.5,0-3.1-0.5-4.7-1C21,9.4,19.7,9,18.7,8.9c-3-0.1-4.3,0.6-4.4,0.6c-0.3,0.2-0.7,0-0.8-0.3   c-0.2-0.3,0-0.7,0.2-0.8c0.1,0,1.6-0.8,5-0.8c1.1,0,2.5,0.5,4,0.9c3.2,1,5.6,1.6,6.5-0.2C29.3,8.1,29.7,8,30,8.2   c0.3,0.2,0.4,0.5,0.3,0.8C29.5,10.4,28.4,10.8,27,10.8z"
       id="path3715" /><path
       class="st2"
       d="M11.3,18.1c-0.2,0-0.3-0.1-0.5-0.2c-0.2-0.3-0.2-0.6,0.1-0.9c5.2-4.3,13.7-5.9,21.7-4.2   c0.3,0.1,0.5,0.4,0.5,0.7c-0.1,0.3-0.4,0.5-0.7,0.5c-5.8-1.3-14.7-1-20.7,3.9C11.6,18.1,11.4,18.1,11.3,18.1z"
       id="path3717" /><path
       class="st2"
       d="M15.1,25.2c-0.2,0-0.4-0.1-0.6-0.2c-0.3-0.2-0.3-0.6-0.1-0.9c0.2-0.2,0.5-0.3,0.7-0.2c0.1,0,0.8-0.2,2.5-1.6   c0.7-0.6,1.5-1.4,2.3-2.3c2.5-2.6,5.4-5.7,7.8-5.1c3.2,0.8,3.7,1.6,4.7,5.7c0.1,0.3-0.1,0.7-0.5,0.7c-0.3,0.1-0.7-0.1-0.7-0.5   c-0.9-4-1.3-4.3-3.8-4.8c-1.8-0.4-4.6,2.6-6.6,4.7c-0.9,0.9-1.7,1.8-2.4,2.4C17,24.5,15.9,25.2,15.1,25.2z M15.3,24   C15.3,24,15.3,24,15.3,24C15.3,24,15.3,24,15.3,24z M15.3,24L15.3,24L15.3,24z"
       id="path3719" /></g><g
     id="Laag_5"
     class="st1"><path
       class="st2"
       d="M35.3,20.9l-2.5,1.1h1.5v8.9c0,1.1-4.6,2.8-11.7,2.8S10.8,32,10.8,30.9v-8.9h1.3l-2.4-1   c-0.1,0.1-0.1,0.2-0.1,0.4v9.5c0,2.6,6.5,4,12.9,4s12.9-1.4,12.9-4v-9.5C35.5,21.1,35.4,21,35.3,20.9z"
       id="path3722" /><path
       class="st2"
       d="M22.6,27c0,0-0.1,0-0.1,0c-0.2,0-0.3-0.1-0.4-0.2L2.9,19c-0.2-0.1-0.4-0.3-0.4-0.6s0.1-0.5,0.4-0.6L22,10   c0.2-0.2,0.4-0.2,0.6-0.2c0.2,0,0.3,0.1,0.4,0.2l19.1,7.8c0.2,0.1,0.4,0.3,0.4,0.6s-0.1,0.5-0.4,0.6L23,26.8   C22.9,26.9,22.7,27,22.6,27z M4.7,18.4l17.8,7.3l17.8-7.3l-17.8-7.3L4.7,18.4z"
       id="path3724" /><path
       class="st2"
       d="M39.8,27.7c-0.3,0-0.6-0.3-0.6-0.6v-7.9c0-0.3,0.3-0.6,0.6-0.6s0.6,0.3,0.6,0.6v7.9   C40.4,27.5,40.1,27.7,39.8,27.7z"
       id="path3726" /><circle
       class="st2"
       cx="39.8"
       cy="27.8"
       r="1.6"
       id="circle3728" /></g><path
     style="fill:#F4991A;stroke:#F4991A;stroke-width:0.08395522"
     d="M 6.2676391,20.127883 6.0615672,19.921811 V 13.674779 7.4277476 L 6.2788716,7.2104431 C 6.4126852,7.0766296 6.6304171,6.973921 6.8455694,6.9431203 c 0.1921663,-0.02751 3.0025828,-0.03877 6.2453696,-0.025021 l 5.895977,0.024998 0.232754,0.232785 0.232755,0.2327849 v 6.2459918 6.245992 l -0.203533,0.216653 -0.203534,0.216651 H 12.759534 6.473711 Z"
     id="path3770"
     inkscape:connector-curvature="0" /><path
     style="fill:#F4991A;stroke:#F4991A;stroke-width:0.08395522"
     d="M 24.977163,20.131336 24.741604,19.928718 V 13.668692 7.4086669 L 24.974389,7.175882 25.207174,6.943097 h 6.260026 6.260025 l 0.202618,0.2355585 0.20262,0.2355586 v 6.2537989 6.253798 l -0.206073,0.206072 -0.206071,0.206072 H 31.46652 25.212722 Z"
     id="path3772"
     inkscape:connector-curvature="0" /><path
     style="fill:#F4991A;stroke:#F4991A;stroke-width:0.08395522"
     d="m 25.318736,38.747278 c -0.09816,-0.01984 -0.268166,-0.131554 -0.377799,-0.248253 l -0.199333,-0.21218 v -6.287969 -6.28797 l 0.232785,-0.232785 0.232785,-0.232785 h 6.245993 6.245992 l 0.216652,0.203534 0.216652,0.203533 v 6.319304 6.319303 l -0.202588,0.235559 -0.202589,0.235558 -6.115042,0.01061 c -3.363274,0.0058 -6.195352,-0.0056 -6.293508,-0.02546 z"
     id="path3774"
     inkscape:connector-curvature="0" /><path
     style="fill:#F4991A;stroke:#F4991A;stroke-width:0.08395522"
     d="M 6.5900494,38.71224 C 6.0328186,38.548862 6.0615672,38.914187 6.0615672,31.996499 v -6.266513 l 0.2173044,-0.217304 c 0.1338136,-0.133814 0.3515455,-0.236522 0.5666978,-0.267323 0.1921663,-0.02751 3.0025828,-0.03877 6.2453696,-0.02502 l 5.895977,0.025 0.232754,0.232785 0.232755,0.232785 v 6.292825 6.292826 l -0.232749,0.232785 -0.23275,0.232785 -6.063892,0.0145 C 9.3394784,38.78523 6.7490739,38.75886 6.5900494,38.71224 Z"
     id="path3776"
     inkscape:connector-curvature="0" /></svg>