<?xml version="1.0" encoding="utf-8"?>
<!-- Generator: Adobe Illustrator 21.0.2, SVG Export Plug-In . SVG Version: 6.00 Build 0)  -->
<svg version="1.1" xmlns="http://www.w3.org/2000/svg" xmlns:xlink="http://www.w3.org/1999/xlink" x="0px" y="0px"
	 viewBox="0 0 45 45" style="enable-background:new 0 0 45 45;" xml:space="preserve">
<style type="text/css">
	.st0{display:none;}
	.st1{display:inline;fill:#F4991A;}
	.st2{fill:#F4991A;}
</style>
<g id="Laag_1" class="st0">
	<path class="st1" d="M18.8,21.8H6.9c-1.2,0-2.1-1-2.1-2.1V7.7c0-1.2,1-2.1,2.1-2.1h11.9c1.2,0,2.1,1,2.1,2.1v11.9
		C20.9,20.8,20,21.8,18.8,21.8z M6.9,6.9C6.4,6.9,6,7.3,6,7.7v11.9c0,0.5,0.4,0.8,0.8,0.8h11.9c0.5,0,0.8-0.4,0.8-0.8V7.7
		c0-0.5-0.4-0.8-0.8-0.8H6.9z"/>
	<path class="st1" d="M18.8,40.1H6.9c-1.2,0-2.1-1-2.1-2.1V26c0-1.2,1-2.1,2.1-2.1h11.9c1.2,0,2.1,1,2.1,2.1V38
		C20.9,39.1,20,40.1,18.8,40.1z M6.9,25.2C6.4,25.2,6,25.6,6,26V38c0,0.5,0.4,0.8,0.8,0.8h11.9c0.5,0,0.8-0.4,0.8-0.8V26
		c0-0.5-0.4-0.8-0.8-0.8H6.9z"/>
	<path class="st1" d="M37.5,21.8H25.5c-1.2,0-2.1-1-2.1-2.1V7.7c0-1.2,1-2.1,2.1-2.1h11.9c1.2,0,2.1,1,2.1,2.1v11.9
		C39.6,20.8,38.7,21.8,37.5,21.8z M25.5,6.9c-0.5,0-0.8,0.4-0.8,0.8v11.9c0,0.5,0.4,0.8,0.8,0.8h11.9c0.5,0,0.8-0.4,0.8-0.8V7.7
		c0-0.5-0.4-0.8-0.8-0.8H25.5z"/>
	<path class="st1" d="M37.5,40.1H25.5c-1.2,0-2.1-1-2.1-2.1V26c0-1.2,1-2.1,2.1-2.1h11.9c1.2,0,2.1,1,2.1,2.1V38
		C39.6,39.1,38.7,40.1,37.5,40.1z M25.5,25.2c-0.5,0-0.8,0.4-0.8,0.8V38c0,0.5,0.4,0.8,0.8,0.8h11.9c0.5,0,0.8-0.4,0.8-0.8V26
		c0-0.5-0.4-0.8-0.8-0.8H25.5z"/>
</g>
<g id="Laag_2" class="st0">
	<path class="st1" d="M27.7,40H16.9c-1.8,0-3.2-1.4-3.2-3.2v-5.3H8.3c-1.8,0-3.2-1.4-3.2-3.2V17.4c0-1.8,1.4-3.2,3.2-3.2h5.3V8.9
		c0-1.8,1.4-3.2,3.2-3.2h10.8c1.8,0,3.2,1.4,3.2,3.2v5.3h5.3c1.8,0,3.2,1.4,3.2,3.2v10.8c0,1.8-1.4,3.2-3.2,3.2h-5.3v5.3
		C30.9,38.6,29.5,40,27.7,40z M8.3,15.4c-1.1,0-2,0.9-2,2v10.8c0,1.1,0.9,2,2,2h5.9c0.3,0,0.6,0.3,0.6,0.6v5.9c0,1.1,0.9,2,2,2h10.8
		c1.1,0,2-0.9,2-2v-5.9c0-0.3,0.3-0.6,0.6-0.6h5.9c1.1,0,2-0.9,2-2V17.4c0-1.1-0.9-2-2-2h-5.9c-0.3,0-0.6-0.3-0.6-0.6V8.9
		c0-1.1-0.9-2-2-2H16.9c-1.1,0-2,0.9-2,2v5.9c0,0.3-0.3,0.6-0.6,0.6H8.3z"/>
	<path class="st1" d="M22.9,29.4C22.9,29.4,22.8,29.4,22.9,29.4c-0.3,0-0.5-0.2-0.6-0.5l-2.7-10.3l-1.5,3.4
		c-0.1,0.2-0.3,0.4-0.6,0.4H9.4c-0.3,0-0.6-0.3-0.6-0.6s0.3-0.6,0.6-0.6h7.8l2-4.7c0.1-0.2,0.3-0.4,0.6-0.4c0.3,0,0.5,0.2,0.5,0.5
		l2.6,9.9l2.6-8.2c0.1-0.2,0.3-0.4,0.6-0.4c0.3,0,0.5,0.1,0.6,0.4l1.2,2.9h7.5c0.3,0,0.6,0.3,0.6,0.6c0,0.3-0.3,0.6-0.6,0.6h-7.9
		c-0.2,0-0.5-0.1-0.6-0.4l-0.7-1.7L23.4,29C23.4,29.3,23.1,29.4,22.9,29.4z"/>
</g>
<g id="Laag_3" class="st0">
	<path class="st1" d="M36.3,36.2h-28c-1.8,0-3.2-1.4-3.2-3.2V22.1c0-1.8,1.4-3.2,3.2-3.2h28c1.8,0,3.2,1.4,3.2,3.2V33
		C39.6,34.7,38.1,36.2,36.3,36.2z M8.4,20.1c-1.1,0-2,0.9-2,2V33c0,1.1,0.9,2,2,2h28c1.1,0,2-0.9,2-2V22.1c0-1.1-0.9-2-2-2H8.4z"/>
	<path class="st1" d="M29.2,9.9c3.7,0,6.7,3,6.7,6.7c0,1-0.2,2-0.7,2.9h1.1V20c0.5-1,0.8-2.2,0.8-3.4c0-4.4-3.5-7.9-7.9-7.9
		c-3.4,0-6.3,2.1-7.4,5.1c0.4,0.2,0.7,0.4,1,0.7C23.7,11.8,26.2,9.9,29.2,9.9z"/>
	<path class="st1" d="M24.6,16.2c0,0,0,0.1,0,0.1c0.6,0.9,1,2,1.1,3.1h1.1c-0.6-0.5-1-1.1-1.2-1.7h1.2c0.2,0,0.4-0.2,0.4-0.4
		c0-0.2-0.2-0.4-0.4-0.4h-1.4c0-0.1,0-0.2,0-0.4c0,0,0,0,0,0l0,0c0-0.1,0-0.2,0-0.4h1.4c0.2,0,0.4-0.2,0.4-0.4
		c0-0.2-0.2-0.4-0.4-0.4h-1.2c0.5-1.5,1.9-2.6,3.6-2.6c0.4,0,0.8,0.1,1.2,0.2l0,0c0,0,0.1,0,0.1,0c0.2,0,0.4-0.2,0.4-0.4
		c0-0.2-0.1-0.3-0.3-0.4v0c-0.5-0.2-1-0.2-1.5-0.2c-2.1,0-3.9,1.4-4.4,3.4h-0.9C24.1,15.7,24.3,15.9,24.6,16.2L24.6,16.2z"/>
	<path class="st1" d="M11.8,19.5c0.4-3.3,3.2-5.9,6.6-5.9s6.2,2.6,6.6,5.9h1.2c-0.4-4-3.8-7.1-7.9-7.1s-7.5,3.1-7.9,7.1H11.8z"/>
	<path class="st1" d="M16.5,19.5c0-0.2-0.2-0.4-0.4-0.4h-1.2c0.5-1.5,1.9-2.6,3.6-2.6c0.4,0,0.8,0.1,1.2,0.2l0,0c0,0,0.1,0,0.1,0
		c0.2,0,0.4-0.2,0.4-0.4c0-0.2-0.1-0.3-0.3-0.4v0c-0.5-0.2-1-0.2-1.5-0.2c-2.1,0-3.9,1.4-4.4,3.4h-1.2c-0.2,0-0.4,0.2-0.4,0.4H16.5z
		"/>
</g>
<g id="Laag_4" class="st0">
	<path class="st1" d="M22,27.7c-6.3,0-11.4-5.1-11.4-11.4C10.6,10,15.7,4.9,22,4.9S33.5,10,33.5,16.3C33.5,22.6,28.3,27.7,22,27.7z
		 M22,6.1c-5.6,0-10.2,4.6-10.2,10.2c0,5.6,4.6,10.2,10.2,10.2S32.2,22,32.2,16.3C32.2,10.7,27.7,6.1,22,6.1z"/>
	<path class="st1" d="M21,35.5c-0.3,0-0.6-0.3-0.6-0.6v-4.7c0-0.3,0.3-0.6,0.6-0.6c0.3,0,0.6,0.3,0.6,0.6v4.7
		C21.6,35.2,21.4,35.5,21,35.5z"/>
	<path class="st1" d="M23.8,39.5c-0.3,0-0.6-0.3-0.6-0.6v-8.7c0-0.3,0.3-0.6,0.6-0.6s0.6,0.3,0.6,0.6v8.7
		C24.4,39.2,24.1,39.5,23.8,39.5z"/>
	<path class="st1" d="M24.7,27.4c-0.1,0-0.2,0-0.3-0.1c-0.3-0.2-0.4-0.5-0.2-0.8c5.1-9.4,2.8-16.9-0.8-20.5c-0.2-0.2-0.2-0.6,0-0.9
		C23.6,5,24,5,24.2,5.2c3.8,3.9,6.3,11.9,1,21.9C25.1,27.3,24.9,27.4,24.7,27.4z"/>
	<path class="st1" d="M27,10.8c-1.5,0-3.1-0.5-4.7-1C21,9.4,19.7,9,18.7,8.9c-3-0.1-4.3,0.6-4.4,0.6c-0.3,0.2-0.7,0-0.8-0.3
		c-0.2-0.3,0-0.7,0.2-0.8c0.1,0,1.6-0.8,5-0.8c1.1,0,2.5,0.5,4,0.9c3.2,1,5.6,1.6,6.5-0.2C29.3,8.1,29.7,8,30,8.2
		c0.3,0.2,0.4,0.5,0.3,0.8C29.5,10.4,28.4,10.8,27,10.8z"/>
	<path class="st1" d="M11.3,18.1c-0.2,0-0.3-0.1-0.5-0.2c-0.2-0.3-0.2-0.6,0.1-0.9c5.2-4.3,13.7-5.9,21.7-4.2
		c0.3,0.1,0.5,0.4,0.5,0.7c-0.1,0.3-0.4,0.5-0.7,0.5c-5.8-1.3-14.7-1-20.7,3.9C11.6,18.1,11.4,18.1,11.3,18.1z"/>
	<path class="st1" d="M15.1,25.2c-0.2,0-0.4-0.1-0.6-0.2c-0.3-0.2-0.3-0.6-0.1-0.9c0.2-0.2,0.5-0.3,0.7-0.2c0.1,0,0.8-0.2,2.5-1.6
		c0.7-0.6,1.5-1.4,2.3-2.3c2.5-2.6,5.4-5.7,7.8-5.1c3.2,0.8,3.7,1.6,4.7,5.7c0.1,0.3-0.1,0.7-0.5,0.7c-0.3,0.1-0.7-0.1-0.7-0.5
		c-0.9-4-1.3-4.3-3.8-4.8c-1.8-0.4-4.6,2.6-6.6,4.7c-0.9,0.9-1.7,1.8-2.4,2.4C17,24.5,15.9,25.2,15.1,25.2z M15.3,24
		C15.3,24,15.3,24,15.3,24C15.3,24,15.3,24,15.3,24z M15.3,24L15.3,24L15.3,24z"/>
</g>
<g id="Laag_5">
	<path class="st2" d="M35.3,20.9l-2.5,1.1h1.5v8.9c0,1.1-4.6,2.8-11.7,2.8S10.8,32,10.8,30.9v-8.9h1.3l-2.4-1
		c-0.1,0.1-0.1,0.2-0.1,0.4v9.5c0,2.6,6.5,4,12.9,4s12.9-1.4,12.9-4v-9.5C35.5,21.1,35.4,21,35.3,20.9z"/>
	<path class="st2" d="M22.6,27c0,0-0.1,0-0.1,0c-0.2,0-0.3-0.1-0.4-0.2L2.9,19c-0.2-0.1-0.4-0.3-0.4-0.6s0.1-0.5,0.4-0.6L22,10
		c0.2-0.2,0.4-0.2,0.6-0.2c0.2,0,0.3,0.1,0.4,0.2l19.1,7.8c0.2,0.1,0.4,0.3,0.4,0.6s-0.1,0.5-0.4,0.6L23,26.8
		C22.9,26.9,22.7,27,22.6,27z M4.7,18.4l17.8,7.3l17.8-7.3l-17.8-7.3L4.7,18.4z"/>
	<path class="st2" d="M39.8,27.7c-0.3,0-0.6-0.3-0.6-0.6v-7.9c0-0.3,0.3-0.6,0.6-0.6s0.6,0.3,0.6,0.6v7.9
		C40.4,27.5,40.1,27.7,39.8,27.7z"/>
	<circle class="st2" cx="39.8" cy="27.8" r="1.6"/>
</g>
</svg>
