<?xml version="1.0" encoding="UTF-8" standalone="no"?>
<!DOCTYPE svg PUBLIC "-//W3C//DTD SVG 1.1//EN"
"http://www.w3.org/Graphics/SVG/1.1/DTD/svg11.dtd">


<!-- Page 1 -->
<svg x="0" y="0" viewBox="0 0 200 200" transform="scale(3,3)" version="1.1" xmlns="http://www.w3.org/2000/svg" xmlns:xlink="http://www.w3.org/1999/xlink"
style="display: block;margin-left: auto;margin-right: auto;">
<defs>
<!-- <clipPath id="c0_1"><path d="M0,232.5L0,0L1286.2,0l0,232.5Z" /></clipPath> -->

<style type="text/css"><![CDATA[
.g5_1{
fill: none;
stroke: #ff9c01;
stroke-width: 2.4826388;
stroke-linecap: round;
stroke-linejoin: round;
}
]]></style>

</defs>
<!-- <path d="M0,0
L0,232
L1286,232
L1286,0 Z " 
fill="#FFFFFF" stroke="none" /> -->

<path d="M97.1,85l0,-22.6c0,-1.5,1.3,-2.8,2.8,-2.8l22.6,0c1.5,0,2.7,1.3,2.7,2.8l0,22.6c0,1.5,-1.2,2.8,-2.7,2.8l-22.6,0c-1.5,0,-2.8,-1.3,-2.8,-2.8Z" class="g5_1" />
<path d="M97.1,119.6L97.1,97c0,-1.5,1.3,-2.8,2.8,-2.8l22.6,0c1.5,0,2.7,1.3,2.7,2.8l0,22.6c0,1.5,-1.2,2.8,-2.7,2.8l-22.6,0c-1.5,0,-2.8,-1.3,-2.8,-2.8Z" class="g5_1" />
<path d="M132.4,85l0,-22.6c0,-1.5,1.3,-2.8,2.8,-2.8l22.6,0c1.5,0,2.8,1.3,2.8,2.8l0,22.6c0,1.5,-1.3,2.8,-2.8,2.8l-22.6,0c-1.5,0,-2.8,-1.3,-2.8,-2.8Z" class="g5_1" />
<path d="M132.4,119.6l0,-22.6c0,-1.5,1.3,-2.8,2.8,-2.8l22.6,0c1.5,0,2.8,1.3,2.8,2.8l0,22.6c0,1.5,-1.3,2.8,-2.8,2.8l-22.6,0c-1.5,0,-2.8,-1.3,-2.8,-2.8Z" class="g5_1" />


</svg>
