<?xml version="1.0" encoding="utf-8"?>
<!-- Generator: Adobe Illustrator 21.0.0, SVG Export Plug-In . SVG Version: 6.00 Build 0)  -->
<svg version="1.1" id="Laag_1" xmlns="http://www.w3.org/2000/svg" xmlns:xlink="http://www.w3.org/1999/xlink" x="0px" y="0px"
	 viewBox="0 0 35 35" style="enable-background:new 0 0 35 35;" xml:space="preserve">
<style type="text/css">
	.st0{fill:#F6F6F6;}
	.st1{fill:#F39200;}
</style>
<path class="st0" d="M18.3,16.8c-4.1,0-9.1,2.8-9.1,2.8c-1.1,0.6-2,2.1-2,3.4v7c0,1.3,1,2.5,2.2,2.8c0,0,4.8,1,8.9,1
	c4,0,8.6-0.9,8.6-0.9c1.2-0.2,2.2-1.5,2.2-2.7v-7.3c0-1.3-0.9-2.8-2-3.4C27.2,19.5,22.3,16.8,18.3,16.8z"/>
<path class="st1" d="M18.3,34.6c-4.1,0-8.9-1-9.1-1.1c-1.6-0.3-2.9-1.9-2.9-3.6v-7c0-1.5,1.1-3.3,2.4-4.1c0.3,0,5.4-2.8,9.6-2.8
	c4.1,0,9.1,2.7,9.3,2.8c1.4,0.7,2.4,2.5,2.4,4.1v7.3c0,1.7-1.3,3.2-2.9,3.5C27,33.7,22.4,34.6,18.3,34.6z M18.3,17.6
	c-3.8,0-8.7,2.7-8.7,2.7C8.8,20.8,8,22,8,23v7c0,0.9,0.7,1.8,1.6,2c0,0,4.8,1,8.7,1c3.8,0,8.4-0.9,8.5-0.9c0.9-0.2,1.6-1.1,1.6-1.9
	v-7.3c0-1-0.7-2.2-1.6-2.7C26.8,20.2,22.1,17.6,18.3,17.6z"/>
<path class="st1" d="M18.3,16.8c-4.1,0-9.1,2.8-9.1,2.8c-1.1,0.6-2,2.1-2,3.4v7c0,1.3,1,2.5,2.2,2.8c0,0,4.8,1,8.9,1
	c4,0,8.6-0.9,8.6-0.9c1.2-0.2,2.2-1.5,2.2-2.7v-7.3c0-1.3-0.9-2.8-2-3.4C27.2,19.5,22.3,16.8,18.3,16.8z"/>
<path class="st0" d="M18.3,34.6c-4.1,0-8.9-1-9.1-1.1c-1.6-0.3-2.9-1.9-2.9-3.6v-7c0-1.5,1.1-3.3,2.4-4.1c0.3,0,5.4-2.8,9.6-2.8
	c4.1,0,9.1,2.7,9.3,2.8c1.4,0.7,2.4,2.5,2.4,4.1v7.3c0,1.7-1.3,3.2-2.9,3.5C27,33.7,22.4,34.6,18.3,34.6z M18.3,17.6
	c-3.8,0-8.7,2.7-8.7,2.7C8.8,20.8,8,22,8,23v7c0,0.9,0.7,1.8,1.6,2c0,0,4.8,1,8.7,1c3.8,0,8.4-0.9,8.5-0.9c0.9-0.2,1.6-1.1,1.6-1.9
	v-7.3c0-1-0.7-2.2-1.6-2.7C26.8,20.2,22.1,17.6,18.3,17.6z"/>
<circle class="st0" cx="18.3" cy="7.3" r="6"/>
<path class="st1" d="M18.3,14.1c-3.8,0-6.9-3.1-6.9-6.9s3.1-6.9,6.9-6.9s6.9,3.1,6.9,6.9S22.1,14.1,18.3,14.1z M18.3,2
	c-2.9,0-5.2,2.4-5.2,5.2s2.4,5.2,5.2,5.2s5.2-2.4,5.2-5.2S21.2,2,18.3,2z"/>
<circle class="st1" cx="18.3" cy="7.3" r="6"/>
<path class="st0" d="M18.3,14.1c-3.8,0-6.9-3.1-6.9-6.9s3.1-6.9,6.9-6.9s6.9,3.1,6.9,6.9S22.1,14.1,18.3,14.1z M18.3,2
	c-2.9,0-5.2,2.4-5.2,5.2s2.4,5.2,5.2,5.2s5.2-2.4,5.2-5.2S21.2,2,18.3,2z"/>
</svg>
