<?xml version="1.0" encoding="utf-8"?>
<!-- Generator: Adobe Illustrator 21.0.0, SVG Export Plug-In . SVG Version: 6.00 Build 0)  -->
<svg version="1.1" id="Laag_1" xmlns="http://www.w3.org/2000/svg" xmlns:xlink="http://www.w3.org/1999/xlink" x="0px" y="0px"
	 viewBox="0 0 53.6 35" style="enable-background:new 0 0 53.6 35;" xml:space="preserve">
<style type="text/css">
	.st0{fill:#F5F5F5;}
	.st1{fill:#F29100;}
</style>
<path class="st0" d="M12.3,16.7c-4.1,0-9.1,2.8-9.1,2.8c-1.1,0.6-2,2.1-2,3.4v7c0,1.3,1,2.5,2.2,2.8c0,0,4.8,1,8.9,1
	c4,0,8.7-0.9,8.7-0.9c1.2-0.2,2.2-1.5,2.2-2.7v-7.3c0-1.3-0.9-2.8-2-3.4C21.2,19.4,16.3,16.7,12.3,16.7z"/>
<path class="st1" d="M12.3,34.6c-4.1,0-8.9-1-9.1-1.1c-1.6-0.3-2.9-1.9-2.9-3.6v-7c0-1.5,1.1-3.4,2.4-4.1c0.2-0.1,5.3-2.9,9.5-2.9
	s9.1,2.7,9.3,2.8c1.4,0.7,2.4,2.6,2.4,4.1v7.3c0,1.7-1.3,3.2-2.9,3.5C20.9,33.7,16.3,34.6,12.3,34.6z M12.3,17.5
	c-3.8,0-8.7,2.7-8.8,2.7c-0.8,0.5-1.6,1.7-1.6,2.7v7c0,0.9,0.7,1.8,1.6,2c0,0,4.8,1,8.7,1s8.5-0.9,8.5-0.9c0.9-0.2,1.6-1.1,1.6-1.9
	v-7.3c0-1-0.7-2.2-1.6-2.7C20.8,20.1,16,17.5,12.3,17.5z"/>
<path class="st1" d="M12.3,16.7c-4.1,0-9.1,2.8-9.1,2.8c-1.1,0.6-2,2.1-2,3.4v7c0,1.3,1,2.5,2.2,2.8c0,0,4.8,1,8.9,1
	c4,0,8.7-0.9,8.7-0.9c1.2-0.2,2.2-1.5,2.2-2.7v-7.3c0-1.3-0.9-2.8-2-3.4C21.2,19.4,16.3,16.7,12.3,16.7z"/>
<path class="st0" d="M12.3,34.6c-4.1,0-8.9-1-9.1-1.1c-1.6-0.3-2.9-1.9-2.9-3.6v-7c0-1.5,1.1-3.4,2.4-4.1c0.2-0.1,5.3-2.9,9.5-2.9
	s9.1,2.7,9.3,2.8c1.4,0.7,2.4,2.6,2.4,4.1v7.3c0,1.7-1.3,3.2-2.9,3.5C20.9,33.7,16.3,34.6,12.3,34.6z M12.3,17.5
	c-3.8,0-8.7,2.7-8.8,2.7c-0.8,0.5-1.6,1.7-1.6,2.7v7c0,0.9,0.7,1.8,1.6,2c0,0,4.8,1,8.7,1s8.5-0.9,8.5-0.9c0.9-0.2,1.6-1.1,1.6-1.9
	v-7.3c0-1-0.7-2.2-1.6-2.7C20.8,20.1,16,17.5,12.3,17.5z"/>
<circle class="st0" cx="12.3" cy="7.2" r="6.1"/>
<path class="st1" d="M12.3,14c-3.8,0-6.9-3-6.9-6.8s3.1-6.9,6.9-6.9s6.9,3.1,6.9,6.9S16.1,14,12.3,14z M12.3,1.9
	C9.4,1.9,7,4.3,7,7.2s2.4,5.3,5.3,5.3s5.3-2.4,5.3-5.3S15.2,1.9,12.3,1.9z"/>
<circle class="st1" cx="12.3" cy="7.2" r="6.1"/>
<path class="st0" d="M12.3,14c-3.8,0-6.9-3-6.9-6.8s3.1-6.9,6.9-6.9s6.9,3.1,6.9,6.9S16.1,14,12.3,14z M12.3,1.9
	C9.4,1.9,7,4.3,7,7.2s2.4,5.3,5.3,5.3s5.3-2.4,5.3-5.3S15.2,1.9,12.3,1.9z"/>
<path class="st0" d="M41.5,16.7c-4.1,0-9.1,2.8-9.1,2.8c-1.1,0.6-2,2.1-2,3.4v7c0,1.3,1,2.5,2.2,2.8c0,0,4.8,1,8.9,1
	c4,0,8.7-0.9,8.7-0.9c1.2-0.2,2.2-1.5,2.2-2.7v-7.3c0-1.3-0.9-2.8-2-3.4C50.4,19.4,45.5,16.7,41.5,16.7z"/>
<path class="st1" d="M41.5,34.6c-4.1,0-8.9-1-9.1-1.1c-1.6-0.3-2.9-1.9-2.9-3.6v-7c0-1.6,1.1-3.4,2.4-4.1c0.2-0.1,5.3-2.9,9.5-2.9
	s9.1,2.7,9.3,2.8c1.4,0.7,2.4,2.6,2.4,4.1v7.3c0,1.7-1.3,3.2-2.9,3.5C50.2,33.7,45.5,34.6,41.5,34.6z M41.5,17.5
	c-3.8,0-8.7,2.7-8.8,2.7c-0.8,0.5-1.6,1.7-1.6,2.7v7c0,0.9,0.7,1.8,1.6,2c0,0,4.8,1,8.7,1s8.5-0.9,8.5-0.9c0.9-0.2,1.6-1.1,1.6-1.9
	v-7.3c0-1-0.7-2.2-1.6-2.7C50,20.1,45.3,17.5,41.5,17.5z"/>
<path class="st1" d="M41.5,16.7c-4.1,0-9.1,2.8-9.1,2.8c-1.1,0.6-2,2.1-2,3.4v7c0,1.3,1,2.5,2.2,2.8c0,0,4.8,1,8.9,1
	c4,0,8.7-0.9,8.7-0.9c1.2-0.2,2.2-1.5,2.2-2.7v-7.3c0-1.3-0.9-2.8-2-3.4C50.4,19.4,45.5,16.7,41.5,16.7z"/>
<path class="st0" d="M41.5,34.6c-4.1,0-8.9-1-9.1-1.1c-1.6-0.3-2.9-1.9-2.9-3.6v-7c0-1.6,1.1-3.4,2.4-4.1c0.2-0.1,5.3-2.9,9.5-2.9
	s9.1,2.7,9.3,2.8c1.4,0.7,2.4,2.6,2.4,4.1v7.3c0,1.7-1.3,3.2-2.9,3.5C50.2,33.7,45.5,34.6,41.5,34.6z M41.5,17.5
	c-3.8,0-8.7,2.7-8.8,2.7c-0.8,0.5-1.6,1.7-1.6,2.7v7c0,0.9,0.7,1.8,1.6,2c0,0,4.8,1,8.7,1s8.5-0.9,8.5-0.9c0.9-0.2,1.6-1.1,1.6-1.9
	v-7.3c0-1-0.7-2.2-1.6-2.7C50,20.1,45.3,17.5,41.5,17.5z"/>
<circle class="st0" cx="41.5" cy="7.2" r="6.1"/>
<path class="st1" d="M41.5,14c-3.8,0-6.9-3.1-6.9-6.9s3.1-6.9,6.9-6.9s6.9,3.1,6.9,6.9S45.3,14,41.5,14z M41.5,1.9
	c-2.9,0-5.3,2.4-5.3,5.3s2.4,5.3,5.3,5.3s5.3-2.4,5.3-5.3S44.4,1.9,41.5,1.9z"/>
<circle class="st1" cx="41.5" cy="7.2" r="6.1"/>
<path class="st0" d="M41.5,14c-3.8,0-6.9-3.1-6.9-6.9s3.1-6.9,6.9-6.9s6.9,3.1,6.9,6.9S45.3,14,41.5,14z M41.5,1.9
	c-2.9,0-5.3,2.4-5.3,5.3s2.4,5.3,5.3,5.3s5.3-2.4,5.3-5.3S44.4,1.9,41.5,1.9z"/>
</svg>
