<?xml version="1.0" encoding="utf-8"?>
<!-- Generator: Adobe Illustrator 21.0.0, SVG Export Plug-In . SVG Version: 6.00 Build 0)  -->
<svg version="1.1" id="Laag_1" xmlns="http://www.w3.org/2000/svg" xmlns:xlink="http://www.w3.org/1999/xlink" x="0px" y="0px"
	 viewBox="0 0 37.3 35" style="enable-background:new 0 0 37.3 35;" xml:space="preserve">
<style type="text/css">
	.st0{fill:#F5F5F5;}
	.st1{fill:#F29100;}
</style>
<path class="st0" d="M12.4,16.7c-4.1,0-9.1,2.8-9.1,2.8c-1.1,0.6-2,2.1-2,3.4v7c0,1.3,1,2.5,2.2,2.8c0,0,4.8,1,8.9,1
	c4,0,8.7-0.9,8.7-0.9c1.2-0.2,2.2-1.5,2.2-2.7v-7.3c0-1.3-0.9-2.8-2-3.4C21.3,19.4,16.4,16.7,12.4,16.7z"/>
<path class="st1" d="M12.4,34.6c-4.1,0-8.9-1-9.1-1.1c-1.6-0.3-2.9-1.9-2.9-3.6v-7c0-1.5,1.1-3.4,2.4-4.1c0.2-0.1,5.3-2.9,9.5-2.9
	s9.1,2.7,9.3,2.8c1.4,0.7,2.4,2.6,2.4,4.1v7.3c0,1.7-1.3,3.2-2.9,3.5C21,33.7,16.4,34.6,12.4,34.6z M12.4,17.5
	c-3.8,0-8.7,2.7-8.8,2.7C2.8,20.7,2,22,2,22.9v7c0,0.9,0.7,1.8,1.6,2c0,0,4.8,1,8.7,1s8.5-0.9,8.5-0.9c0.9-0.2,1.6-1.1,1.6-1.9v-7.3
	c0-1-0.7-2.2-1.6-2.7C20.8,20.1,16.1,17.5,12.4,17.5z"/>
<path class="st1" d="M12.4,16.7c-4.1,0-9.1,2.8-9.1,2.8c-1.1,0.6-2,2.1-2,3.4v7c0,1.3,1,2.5,2.2,2.8c0,0,4.8,1,8.9,1
	c4,0,8.7-0.9,8.7-0.9c1.2-0.2,2.2-1.5,2.2-2.7v-7.3c0-1.3-0.9-2.8-2-3.4C21.3,19.4,16.4,16.7,12.4,16.7z"/>
<path class="st0" d="M12.4,34.6c-4.1,0-8.9-1-9.1-1.1c-1.6-0.3-2.9-1.9-2.9-3.6v-7c0-1.5,1.1-3.4,2.4-4.1c0.2-0.1,5.3-2.9,9.5-2.9
	s9.1,2.7,9.3,2.8c1.4,0.7,2.4,2.6,2.4,4.1v7.3c0,1.7-1.3,3.2-2.9,3.5C21,33.7,16.4,34.6,12.4,34.6z M12.4,17.5
	c-3.8,0-8.7,2.7-8.8,2.7C2.8,20.7,2,22,2,22.9v7c0,0.9,0.7,1.8,1.6,2c0,0,4.8,1,8.7,1s8.5-0.9,8.5-0.9c0.9-0.2,1.6-1.1,1.6-1.9v-7.3
	c0-1-0.7-2.2-1.6-2.7C20.8,20.1,16.1,17.5,12.4,17.5z"/>
<circle class="st0" cx="12.4" cy="7.2" r="6.1"/>
<path class="st1" d="M12.4,14c-3.8,0-6.9-3-6.9-6.8s3.1-6.9,6.9-6.9s6.9,3.1,6.9,6.9S16.2,14,12.4,14z M12.4,1.9
	c-2.9,0-5.3,2.4-5.3,5.3s2.4,5.3,5.3,5.3s5.3-2.4,5.3-5.3S15.3,1.9,12.4,1.9z"/>
<circle class="st1" cx="12.4" cy="7.2" r="6.1"/>
<path class="st0" d="M12.4,14c-3.8,0-6.9-3-6.9-6.8s3.1-6.9,6.9-6.9s6.9,3.1,6.9,6.9S16.2,14,12.4,14z M12.4,1.9
	c-2.9,0-5.3,2.4-5.3,5.3s2.4,5.3,5.3,5.3s5.3-2.4,5.3-5.3S15.3,1.9,12.4,1.9z"/>
<path class="st0" d="M27.2,19.9c-3.3,0-7.5,2.3-7.5,2.3c-0.9,0.5-1.6,1.8-1.6,2.8v5.7c0,1,0.8,2,1.8,2.3c0,0,3.9,0.8,7.3,0.8
	c3.3,0,7.1-0.8,7.1-0.8c1-0.2,1.8-1.2,1.8-2.2v-6c0-1-0.7-2.3-1.6-2.8C34.5,22.1,30.5,19.9,27.2,19.9z"/>
<path class="st1" d="M27.2,34.6c-3.4,0-7.3-0.8-7.4-0.9c-1.4-0.3-2.5-1.6-2.5-3V25c0-1.3,0.9-2.8,2-3.5c0.2-0.1,4.3-2.4,7.8-2.4
	c3.4,0,7.5,2.2,7.6,2.3c1.2,0.6,2.1,2.2,2.1,3.5v6c0,1.4-1.1,2.7-2.5,3C34.3,33.9,30.5,34.6,27.2,34.6z M27.2,20.7
	c-3.1,0-7,2.2-7.1,2.2C19.5,23.2,19,24.2,19,25v5.7c0,0.6,0.6,1.3,1.2,1.5c0,0,3.9,0.8,7.1,0.8c3.1,0,6.9-0.7,6.9-0.7
	c0.6-0.1,1.2-0.8,1.2-1.4v-6c0-0.7-0.6-1.7-1.2-2.1C34.1,22.8,30.2,20.7,27.2,20.7z"/>
<path class="st1" d="M27.2,19.9c-3.3,0-7.5,2.3-7.5,2.3c-0.9,0.5-1.6,1.8-1.6,2.8v5.7c0,1,0.8,2,1.8,2.3c0,0,3.9,0.8,7.3,0.8
	c3.3,0,7.1-0.8,7.1-0.8c1-0.2,1.8-1.2,1.8-2.2v-6c0-1-0.7-2.3-1.6-2.8C34.5,22.1,30.5,19.9,27.2,19.9z"/>
<path class="st0" d="M27.2,34.6c-3.4,0-7.3-0.8-7.4-0.9c-1.4-0.3-2.5-1.6-2.5-3V25c0-1.3,0.9-2.8,2-3.5c0.2-0.1,4.3-2.4,7.8-2.4
	c3.4,0,7.5,2.2,7.6,2.3c1.2,0.6,2.1,2.2,2.1,3.5v6c0,1.4-1.1,2.7-2.5,3C34.3,33.9,30.5,34.6,27.2,34.6z M27.2,20.7
	c-3.1,0-7,2.2-7.1,2.2C19.5,23.2,19,24.2,19,25v5.7c0,0.6,0.6,1.3,1.2,1.5c0,0,3.9,0.8,7.1,0.8c3.1,0,6.9-0.7,6.9-0.7
	c0.6-0.1,1.2-0.8,1.2-1.4v-6c0-0.7-0.6-1.7-1.2-2.1C34.1,22.8,30.2,20.7,27.2,20.7z"/>
<circle class="st0" cx="27.2" cy="12.1" r="4.9"/>
<path class="st1" d="M27.2,17.9c-3.2,0-5.7-2.6-5.7-5.7c0-3.2,2.6-5.7,5.7-5.7S33,8.9,33,12.1S30.4,17.9,27.2,17.9z M27.2,8
	c-2.3,0-4.1,1.9-4.1,4.1s1.9,4.1,4.1,4.1c2.3,0,4.1-1.9,4.1-4.1S29.5,8,27.2,8z"/>
<circle class="st1" cx="27.2" cy="12.1" r="4.9"/>
<path class="st0" d="M27.2,17.9c-3.2,0-5.7-2.6-5.7-5.7c0-3.2,2.6-5.7,5.7-5.7S33,8.9,33,12.1S30.4,17.9,27.2,17.9z M27.2,8
	c-2.3,0-4.1,1.9-4.1,4.1s1.9,4.1,4.1,4.1c2.3,0,4.1-1.9,4.1-4.1S29.5,8,27.2,8z"/>
</svg>
