<?xml version="1.0" encoding="utf-8"?>
<!-- Generator: Adobe Illustrator 21.0.0, SVG Export Plug-In . SVG Version: 6.00 Build 0)  -->
<svg version="1.1" id="Laag_1" xmlns="http://www.w3.org/2000/svg" xmlns:xlink="http://www.w3.org/1999/xlink" x="0px" y="0px"
	 viewBox="0 0 281 210" style="enable-background:new 0 0 281 210;" xml:space="preserve">
<style type="text/css">
	.st0{fill:#FFF4E9;}
	.st1{fill:#F29100;}
</style>
<g>
	<g>
		<g>
			<path class="st0" d="M275.9,25.3c-0.6-0.4-1.7-0.7-2.5-0.5L263.2,27c-0.8,0.2-2,0.1-2.8-0.2l-4.7-1.6c-0.7-0.3-2-0.3-2.8-0.1
				l-2.9,0.6c-0.8,0.2-1.8-0.2-2.3-0.8l-1.8-2.4c-0.5-0.6-1.5-1.3-2.3-1.5l-3.3-0.8c-0.8-0.2-1.9,0.1-2.4,0.6l-0.5,0.5
				c-0.6,0.5-1.6,0.7-2.3,0.3l-11.1-6.7c-0.7-0.4-1.9-0.7-2.7-0.7l-5.3,0.1c-0.8,0-1.7,0.5-2,1.2c-0.3,0.6-0.9,1.2-1.3,1.2
				s-1.1-0.5-1.6-1.1l-1.8-2.4c-0.5-0.6-1.4-0.8-2.1-0.5l-5.8,3.1c-0.7,0.4-1.9,0.8-2.7,0.9l-17,2.2c-0.8,0.1-1.6,0.8-1.9,1.5
				l-2.2,6.2c-0.3,0.7-1.1,1.6-1.8,1.9l-7.6,3.1c-0.7,0.3-1.9,0.2-2.5-0.3l-23.7-16.5c-0.6-0.5-1.8-0.9-2.6-1l-2.9-0.5
				c-0.8-0.1-2.1-0.2-2.9-0.2l-8.4,0.1c-0.8,0-1.8-0.5-2.2-1.2l-2.1-3.5c-0.4-0.7-1.3-1.4-2.1-1.6L117,6.2c-0.8-0.2-2-0.2-2.7,0.1
				l-0.9,0.4c-0.7,0.3-1.6,1.1-2,1.8l-2.2,4.1c-0.4,0.7-0.6,1.9-0.4,2.7l0.7,3.2c0.2,0.8,0,2-0.4,2.6l-1.8,2.9
				c-0.4-0.1-0.6-0.1-0.6,0c0,0.2-0.6,0.2-1.4,0l-62-14.3c-0.8-0.2-2-0.3-2.8-0.3h-4.1c-0.8,0-2.1-0.1-2.8-0.3L14.4,4.9
				c-0.8-0.2-1.5,0.3-1.7,1.1L5.3,43.5c-0.2,0.8,0.4,1.5,1.1,1.7L27,49.4c0.8,0.2,1.4,0.9,1.4,1.7l0.1,8.9l0-3.3
				c0,0.1-0.1,0.2-0.1,0.4l-0.2,4.7c0,0.8-0.1,2.1-0.1,2.9v4.2c0,0.8-0.1,2.1-0.3,2.8l-0.4,1.5c-0.2,0.8-0.2,2-0.1,2.8l0.6,4.1
				c0.1,0.8,0.1,2.1,0.1,2.8l-2,18.2c-0.1,0.8,0.4,1.8,1,2.3l25.4,17.8c0.6,0.5,1.5,1.4,1.9,2.1l3.6,6.1c0.4,0.7,1,1.2,1.4,1.2
				s1.2,0.4,1.8,0.9l11.7,9c0.4,0.3,1,0.4,1.4,0.1l0.9,1.8c0.3,0.7,1.2,1.2,2,1.1l14.5-2.1c0.8-0.1,1.4-0.7,1.4-1.3
				c0-0.6,0.6-1.3,1.4-1.6l0.8-0.3c0.7-0.3,2-0.5,2.8-0.5h6.5c0.8,0,1.4,0.6,1.4,1.4v7.7c0,0.8,0.6,1.4,1.4,1.4H137
				c0.3,0,0.6-0.1,0.8-0.2c0.1,0,0.2,0.1,0.3,0.1l3.4,1.1c0.7,0.2,1.9,0.8,2.6,1.2l3.2,2.1c0.7,0.4,1.7,0.8,2.3,0.8s1.5-0.5,1.9-1.2
				l0,0c0.4-0.7,0.8-1.8,0.8-2.6v-10.1c0-0.8,0.6-1.7,1.3-2.1l4.4-2.2c0.7-0.3,1.7-1.1,2.3-1.7l2.6-2.7c0.6-0.6,1.6-0.8,2.4-0.6
				l4.4,1.5c0.7,0.3,1.9,0.2,2.7-0.2l7.6-3.7c0.7-0.3,1.7-1.1,2.3-1.6l1.1-1.2c0.6-0.6,1.4-1.6,1.8-2.2l3.9-5.6
				c0.4-0.6,1.1-1.7,1.5-2.4l0.9-1.5c0.4-0.7,0.9-1.9,1.1-2.6l0.4-1.4c0.2-0.8,0.9-1.8,1.5-2.3l1.5-1.3c0.6-0.5,1.7-0.7,2.4-0.4
				l3.1,1.3c0.7,0.3,1.8,1,2.4,1.5l9.1,8.7c0.6,0.5,1.5,1.4,2.1,1.9l4,3.4c0.6,0.5,1.7,1,2.5,1l5.7,0.3c0.8,0,1.8-0.4,2.3-1.1
				l4.1-5.7c0.5-0.6,0.4-1.6-0.1-2.2l-7.3-8.2c-0.5-0.6-1.5-1.5-2.1-1.9l-7.1-5.5c-0.6-0.5-1.7-0.6-2.4-0.2l-2.4,1.3
				c-0.7,0.4-1.9,0.9-2.6,1.1l-3.2,1.1c-0.7,0.3-1.9,0.1-2.6-0.3l-12.1-7.2c-0.7-0.4-1.7-1.2-2.2-1.7c-0.5-0.5-1-1.6-1-2.4v-0.8
				c0-0.8,0.6-1.4,1.4-1.4h15.4c0.8,0,0.9-0.4,0.3-0.9l-14.5-12c-0.6-0.5-1.1-1.6-1.1-2.4l0-0.6c0-0.2-0.1-0.4-0.2-0.6l1.2-2.2
				c0.4-0.7,1.3-0.9,1.9-0.6l5.8,3.2c0.7,0.4,1.6,1.2,2.1,1.8l4.4,5.9c0.5,0.6,1.5,1.2,2.2,1.2c0.8,0,1.8-0.5,2.4-1.1l2.6-2.8
				c0.5-0.6,1.6-1.2,2.4-1.4l4.2-1c0.8-0.2,1.7,0.2,2,0.9l1.5,3c0.4,0.7,1.2,1.5,2,1.9l2.9,1.3c0.7,0.3,1.9,0.3,2.6,0l1.3-0.6
				c0.7-0.3,1.4-1.2,1.5-2l0.1-1c0.1-0.8,0.2-2.1,0.2-2.9l0-2.5c0-0.8-0.1-2.1-0.2-2.9l-0.1-0.8c-0.1-0.8,0.4-1.8,1.1-2.2l8.2-5.5
				c0.7-0.4,1.3-1.4,1.4-2.2l1.3-7.7c0.1-0.8,0.5-2,0.9-2.7l0.4-0.8c0.3-0.7,1.1-1.7,1.7-2.2l3.6-3c0.6-0.5,1.6-1.3,2.3-1.7l4.5-3
				c0.7-0.4,1.5-1.4,1.9-2.1l3-5.4c0.4-0.7,1.3-1.4,2.1-1.6l2.2-0.6c0.8-0.2,2-0.2,2.8-0.1l4.4,0.8c0.8,0.1,1.6-0.4,1.8-1.1l0.2-0.8
				C276.8,26.7,276.5,25.8,275.9,25.3z"/>
			<path class="st1" d="M149.4,154.7c-0.9,0-2.2-0.4-3-1l-3.2-2.1c-0.6-0.4-1.6-0.9-2.3-1.1l-3.1-1c-0.2,0.1-0.5,0.1-0.8,0.1h-29.5
				c-1.5,0-2.7-1.2-2.7-2.7v-7.7c0-0.1-0.1-0.2-0.2-0.2h-6.5c-0.6,0-1.8,0.2-2.4,0.4l-0.8,0.3c-0.3,0.1-0.5,0.3-0.5,0.4
				c0,1.2-1.1,2.3-2.5,2.5l-14.5,2.1c-1.3,0.2-2.8-0.6-3.4-1.8l-0.4-0.9c-0.5,0-1-0.2-1.5-0.5l-11.7-9c-0.4-0.3-0.9-0.6-1.1-0.6
				c-1,0-2-1-2.5-1.9l-3.6-6.1c-0.3-0.5-1-1.3-1.5-1.7l-25.4-17.8c-1-0.7-1.7-2.2-1.5-3.4l2-18.2c0.1-0.7,0.1-1.9,0-2.5l-0.6-4.1
				C26,75.3,26,73.9,26.3,73l0.4-1.5c0.2-0.7,0.3-1.9,0.3-2.5v-4.2c0-0.8,0-2.1,0.1-2.9l0.2-4.7c0-0.2,0-0.3,0.1-0.5l-0.1-5.4
				c0-0.2-0.2-0.5-0.4-0.5L6.2,46.4c-1.5-0.3-2.4-1.7-2.1-3.2l7.4-37.4c0.1-0.7,0.6-1.3,1.2-1.7c0.6-0.4,1.3-0.5,2-0.4l19.1,4.1
				c0.7,0.1,1.9,0.3,2.6,0.3h4.1c0.9,0,2.3,0.2,3.1,0.4l62,14.3c0.2,0,0.4,0.1,0.5,0.1c0.2-0.1,0.4-0.2,0.6-0.2l1.4-2.3
				c0.2-0.4,0.4-1.2,0.3-1.7l-0.7-3.2c-0.2-1.1,0-2.6,0.5-3.5l2.2-4.1c0.5-0.9,1.7-2,2.7-2.4l0.9-0.4c1-0.4,2.5-0.5,3.5-0.2l2.1,0.6
				c1.1,0.3,2.3,1.3,2.8,2.2l2.1,3.5c0.2,0.3,0.7,0.6,1,0.6c0,0,0,0,0,0l8.4-0.1c0.9,0,2.2,0.1,3.1,0.2l2.9,0.5
				c1,0.2,2.3,0.7,3.1,1.3l23.7,16.5c0.3,0.2,1,0.3,1.3,0.1l7.6-3.1c0.4-0.2,1-0.7,1.1-1.2l2.2-6.2c0.4-1.2,1.7-2.2,2.9-2.4l17-2.2
				c0.6-0.1,1.7-0.4,2.3-0.7l5.8-3.1c1.2-0.7,2.9-0.3,3.7,0.8l1.8,2.4c0.2,0.2,0.3,0.4,0.5,0.5c0.1-0.1,0.2-0.2,0.3-0.4
				c0.5-1,1.9-1.8,3.1-1.8l5.3-0.1c0,0,0,0,0,0c1,0,2.4,0.4,3.3,0.9l11.1,6.7c0.2,0.1,0.6,0.1,0.7-0.1l0.5-0.5
				c0.9-0.8,2.4-1.3,3.6-1l3.3,0.8c1,0.3,2.3,1.1,3,1.9l1.8,2.4c0.2,0.2,0.7,0.4,1,0.4l2.9-0.6c1-0.2,2.5-0.1,3.4,0.2l4.7,1.6
				c0.5,0.2,1.5,0.2,2.1,0.1l10.2-2.2c1.1-0.2,2.6,0.1,3.5,0.7c1,0.8,1.5,2.3,1.1,3.6l-0.2,0.8c-0.4,1.4-1.9,2.2-3.3,2l-4.4-0.8
				c-0.6-0.1-1.7-0.1-2.3,0.1l-2.2,0.6c-0.4,0.1-1.1,0.6-1.3,1l-3,5.4c-0.5,0.9-1.5,1.9-2.3,2.5l-4.5,3c-0.6,0.4-1.6,1.2-2.2,1.6
				l-3.6,3c-0.5,0.4-1.1,1.2-1.4,1.8l-0.4,0.8c-0.3,0.6-0.6,1.7-0.7,2.4l-1.3,7.7c-0.2,1.1-1,2.4-2,3.1l-8.2,5.5
				c-0.3,0.2-0.5,0.7-0.5,1.1l0.1,0.8c0.1,0.8,0.1,2.1,0.2,3l0,2.5c0,0.9-0.1,2.2-0.2,3l-0.1,1c-0.2,1.2-1.1,2.5-2.2,3l-1.3,0.6
				c-1,0.5-2.6,0.5-3.7,0l-2.9-1.3c-1-0.4-2.1-1.5-2.6-2.5l-1.5-3c-0.1-0.2-0.4-0.3-0.6-0.3l-4.2,1c-0.5,0.1-1.4,0.6-1.7,1l-2.6,2.8
				c-0.8,0.8-2.2,1.5-3.3,1.5c-1.2,0-2.6-0.7-3.3-1.7L200,75c-0.4-0.5-1.2-1.2-1.7-1.5l-5.8-3.2c0,0-0.1,0-0.1,0c0,0-0.1,0-0.1,0.1
				l-0.9,1.7c0,0.2,0,0.3,0.1,0.5l0,0.6c0,0.4,0.4,1.1,0.7,1.4l14.5,12c1,0.9,0.9,1.7,0.7,2.1c-0.1,0.3-0.5,1.1-1.9,1.1H190
				c-0.1,0-0.2,0.1-0.2,0.2v0.8c0,0.5,0.3,1.2,0.6,1.5c0.5,0.5,1.4,1.2,2,1.5l12.1,7.2c0.4,0.2,1.1,0.3,1.5,0.2l3.2-1.1
				c0.7-0.2,1.8-0.7,2.4-1.1l2.4-1.3c1.1-0.6,2.8-0.5,3.8,0.3l7.1,5.5c0.7,0.5,1.7,1.5,2.3,2.1l7.3,8.2c0.9,1,1,2.7,0.2,3.8
				l-4.1,5.7c-0.7,1-2.2,1.7-3.4,1.6l-5.7-0.3c-1.1-0.1-2.5-0.6-3.3-1.3l-4-3.4c-0.6-0.5-1.6-1.4-2.2-2l-9.1-8.7
				c-0.4-0.4-1.4-1-2-1.3l-3.1-1.3c-0.3-0.1-0.9,0-1.1,0.2l-1.5,1.3c-0.4,0.4-0.9,1.2-1.1,1.7l-0.4,1.4c-0.2,0.9-0.8,2.1-1.2,2.9
				l-0.9,1.5c-0.4,0.7-1.1,1.9-1.6,2.5l-3.9,5.6c-0.5,0.7-1.3,1.8-2,2.4l-1.1,1.2c-0.6,0.7-1.8,1.5-2.7,1.9l-7.6,3.7
				c-1,0.5-2.6,0.6-3.6,0.2l-4.4-1.5c-0.3-0.1-0.8,0-1,0.2l-2.6,2.7c-0.6,0.7-1.8,1.5-2.6,1.9l-4.4,2.2c-0.3,0.1-0.6,0.6-0.6,0.9
				v10.1c0,1-0.4,2.5-1,3.3l0,0C151.8,154,150.5,154.7,149.4,154.7z M137.5,146.7l0.8,0.3c0.1,0,0.1,0.1,0.2,0.1l3.4,1.1
				c0.8,0.3,2.1,0.9,2.9,1.4l3.2,2.1c0.5,0.3,1.3,0.6,1.7,0.6c0.2,0,0.6-0.3,0.9-0.6l0,0c0.3-0.5,0.6-1.4,0.6-1.9v-10.1
				c0-1.3,0.9-2.6,2-3.2l4.4-2.2c0.6-0.3,1.5-0.9,2-1.4l2.6-2.7c0.9-0.9,2.5-1.3,3.7-0.9l4.4,1.5c0.4,0.1,1.3,0.1,1.7-0.1l7.6-3.7
				c0.6-0.3,1.5-0.9,1.9-1.4l1.1-1.2c0.5-0.5,1.3-1.5,1.7-2l3.9-5.6c0.4-0.6,1.1-1.7,1.5-2.3l0.9-1.5c0.3-0.6,0.8-1.7,1-2.4l0.4-1.4
				c0.3-1,1.1-2.3,1.9-2.9l1.5-1.3c1-0.8,2.6-1.1,3.7-0.6l3.1,1.3c0.9,0.4,2.1,1.1,2.8,1.8l9.1,8.7c0.5,0.5,1.5,1.4,2.1,1.9l4,3.4
				c0.4,0.3,1.3,0.7,1.8,0.7l5.7,0.3c0.4,0,1-0.3,1.2-0.6l4.1-5.7c0.1-0.2,0.1-0.5,0-0.6l-7.3-8.2c-0.5-0.5-1.4-1.4-1.9-1.8
				l-7.1-5.5c-0.2-0.2-0.8-0.2-1-0.1l-2.4,1.3c-0.8,0.4-2,0.9-2.8,1.2l-3.2,1.1c-1.1,0.4-2.7,0.2-3.7-0.4l-12.1-7.2
				c-0.8-0.5-1.8-1.3-2.4-1.9c-0.8-0.8-1.3-2.2-1.3-3.3v-0.8c0-1.5,1.2-2.7,2.7-2.7h13.3l-12.9-10.7c-0.9-0.7-1.6-2.1-1.6-3.3l0-0.6
				c0,0,0-0.1,0-0.1l-0.3-0.6l1.5-2.7c0.3-0.6,0.9-1.1,1.6-1.3c0.7-0.2,1.4-0.1,2.1,0.2l5.8,3.2c0.9,0.5,1.9,1.4,2.5,2.2l4.4,5.9
				c0.2,0.3,0.9,0.6,1.2,0.6c0.4,0,1.1-0.3,1.4-0.6l2.6-2.8c0.7-0.8,2-1.5,3-1.8l4.2-1c1.3-0.3,2.9,0.4,3.5,1.6l1.5,3
				c0.2,0.4,0.9,1.1,1.3,1.3l2.9,1.3c0.4,0.2,1.2,0.2,1.6,0l1.3-0.6c0.3-0.1,0.7-0.7,0.8-1l0.1-1c0.1-0.7,0.2-1.9,0.2-2.7l0-2.5
				c0-0.7-0.1-2-0.2-2.8l-0.1-0.8c-0.1-1.2,0.6-2.7,1.6-3.4l8.2-5.5c0.4-0.2,0.8-0.9,0.9-1.4l1.3-7.7c0.2-0.9,0.6-2.2,1-3l0.4-0.8
				c0.4-0.9,1.3-2,2.1-2.6l3.6-3c0.6-0.5,1.7-1.3,2.4-1.8l4.5-3c0.5-0.3,1.2-1.1,1.5-1.6l3-5.4c0.5-1,1.8-1.9,2.9-2.2l1.3-0.3
				l-2.6,0.6c-1,0.2-2.5,0.1-3.4-0.2l-4.7-1.6c-0.5-0.2-1.5-0.2-2.1-0.1l-2.9,0.6c-1.2,0.3-2.8-0.3-3.6-1.3l-1.8-2.4
				c-0.3-0.4-1.1-0.9-1.6-1l-3.3-0.8c-0.3-0.1-1,0.1-1.2,0.3l-0.5,0.5c-1,1-2.6,1.1-3.8,0.4L223.6,16c-0.5-0.3-1.4-0.5-2-0.5
				c0,0,0,0,0,0l-5.3,0.1c-0.4,0-0.8,0.3-0.9,0.5c-0.5,0.9-1.4,1.8-2.3,1.9c-1,0.1-2.1-0.8-2.7-1.6l-1.8-2.4
				c-0.1-0.1-0.4-0.2-0.5-0.1l-5.8,3.1c-0.8,0.4-2.2,0.9-3.1,1l-17,2.2c-0.3,0-0.8,0.4-0.9,0.7L179,27c-0.4,1.1-1.5,2.2-2.5,2.6
				l-7.6,3.1c-1.1,0.5-2.7,0.3-3.7-0.4l-23.7-16.5c-0.5-0.3-1.5-0.7-2.1-0.8l-2.9-0.5c-0.7-0.1-1.9-0.2-2.6-0.2l-8.4,0.1
				c-1.2,0-2.6-0.8-3.3-1.8l-2.1-3.5c-0.2-0.4-0.9-0.9-1.4-1.1l-2.1-0.6c-0.5-0.1-1.4-0.1-1.9,0.1l-0.9,0.4
				c-0.5,0.2-1.1,0.8-1.4,1.2l-2.2,4.1c-0.2,0.4-0.4,1.3-0.3,1.8l0.7,3.2c0.2,1.1,0,2.6-0.6,3.6l-2.3,3.7l-0.8-0.2
				c-0.3,0.1-1,0.3-2.1,0L43,10.9c-0.7-0.2-1.9-0.3-2.5-0.3h-4.1c-0.9,0-2.2-0.1-3.1-0.3L14.1,6.2c0,0-0.1,0-0.1,0
				c0,0-0.1,0.1-0.1,0.1L6.5,43.7c0,0.1,0,0.2,0.1,0.2l20.6,4.2c0.9,0.2,1.7,0.8,2.1,1.7l0.3-1l0,2.2c0,0,0,0,0,0l0.1,8.9l-0.2,0
				l-0.1,1.8c0,0.8-0.1,2-0.1,2.8v4.2c0,0.9-0.2,2.3-0.4,3.1l-0.4,1.5c-0.1,0.6-0.2,1.7-0.1,2.3l0.6,4.1c0.1,0.9,0.2,2.3,0.1,3.2
				l-2,18.2c0,0.3,0.2,0.9,0.5,1.1l25.4,17.8c0.8,0.6,1.8,1.6,2.3,2.5l3.6,6.1c0.2,0.3,0.4,0.5,0.5,0.6c0.9,0.1,1.9,0.7,2.4,1.1
				l11.7,9l1.2-0.7l0.6,1.3l0.8,1.8c0.1,0.2,0.5,0.4,0.7,0.4l14.5-2.1c0.2,0,0.3-0.1,0.3-0.2c0.1-1.1,1-2.2,2.2-2.7l0.8-0.3
				c0.9-0.3,2.3-0.6,3.2-0.6h6.5c1.5,0,2.7,1.2,2.7,2.7v7.7c0,0.1,0.1,0.2,0.2,0.2H137L137.5,146.7z M94.4,140.3L94.4,140.3
				L94.4,140.3z M59.4,132C59.4,132,59.4,132,59.4,132C59.4,132,59.4,132,59.4,132z M59.6,129.5L59.6,129.5L59.6,129.5z M269,27.2
				c0.5,0,1,0,1.4,0.1l4.4,0.8c0.1,0,0.3-0.1,0.4-0.2l0.2-0.8c0.1-0.3-0.1-0.7-0.2-0.8l0,0c-0.3-0.2-1-0.4-1.5-0.3l-5.7,1.2
				C268.3,27.2,268.6,27.2,269,27.2z M107.9,23.9C107.9,23.9,107.9,23.9,107.9,23.9C107.9,23.9,107.9,23.9,107.9,23.9z M105.4,23.9
				C105.4,23.9,105.4,23.9,105.4,23.9C105.4,23.9,105.4,23.9,105.4,23.9z M105.4,23.9L105.4,23.9L105.4,23.9z"/>
		</g>
		<g>
			<path class="st0" d="M236,148.9c-0.1-0.8-0.5-1.7-0.9-2.1c-0.4-0.3-1.2-0.2-1.8,0.3l-13.1,12.2c-0.6,0.5-1,0.3-1-0.5v-3.3
				c0-0.8-0.3-2-0.6-2.8l-4.7-10.7c-0.3-0.7-1.1-1.7-1.7-2.2l-1.6-1.3c-0.6-0.5-1.7-0.9-2.5-0.9l-2,0c-0.8,0-1.7-0.2-2-0.6
				s-1.1-0.2-1.8,0.2l-17.2,10.8c-0.7,0.4-1.6,0.2-2-0.4l-3.6-5c-0.5-0.6-1.4-0.8-2-0.3l-5.5,4c-0.6,0.5-0.7,1.4-0.2,2l1.6,1.9
				c0.5,0.6,0.7,1.7,0.5,2.5l-1.3,3.9c-0.2,0.7-0.9,1.9-1.4,2.5l-5.1,5.9c-0.5,0.6-0.9,1.7-0.9,2.4s0.3,1.9,0.7,2.6l18.6,34.9
				c0.4,0.7,1.3,1.3,2.1,1.3h2.4c0.8,0,2.1-0.1,2.8-0.3l2.3-0.5c0.8-0.2,1.6-0.9,1.9-1.7l0.2-0.5c0.3-0.7,0.9-1.9,1.3-2.6l0.9-1.6
				c0.4-0.7,1.2-1.6,1.9-2.1l6.9-5.1c0.6-0.5,1.8-0.8,2.6-0.7l8,0.8c0.8,0.1,1.8-0.4,2.3-1l2-2.4c0.5-0.6,0.9-1.8,0.8-2.5l-0.1-1.1
				c-0.1-0.8,0.1-2,0.5-2.7l0.4-0.9c0.3-0.7,1-1.8,1.6-2.3l4.3-4.6c0.5-0.6,1.6-1.1,2.4-1.1l0.4,0c0.8,0,2.1,0.1,2.8,0.2l2.7,0.4
				c0.8,0.1,1.3-0.4,1.2-1.2L236,148.9z"/>
			<path class="st1" d="M189,207.5h-2.4c-1.3,0-2.6-0.8-3.2-1.9l-18.6-34.9c-0.5-0.9-0.8-2.3-0.8-3.2c0-1,0.5-2.4,1.2-3.3l5.1-5.9
				c0.4-0.5,1-1.4,1.1-2l1.3-3.9c0.1-0.3,0-1-0.2-1.3l-1.6-1.9c-0.5-0.6-0.7-1.3-0.6-2c0.1-0.7,0.5-1.4,1.1-1.8l5.5-4
				c0.6-0.4,1.3-0.6,2-0.5c0.7,0.1,1.3,0.5,1.8,1.1l3.6,5c0.1,0.1,0.2,0.1,0.3,0.1l17.2-10.8c1-0.6,2.5-0.8,3.3,0
				c0.2,0.1,0.6,0.2,1.1,0.2l2,0c1.1,0,2.5,0.5,3.4,1.2l1.6,1.3c0.8,0.6,1.6,1.8,2,2.7l4.7,10.7c0.4,0.9,0.7,2.3,0.7,3.3v1.8
				l12-11.2c1.1-1,2.6-1.2,3.5-0.4c0.7,0.6,1.2,1.9,1.3,2.8l3.2,23.9c0.1,0.8-0.1,1.5-0.7,2c-0.5,0.5-1.3,0.7-2,0.6l-2.7-0.4
				c-0.7-0.1-1.9-0.2-2.6-0.2l-0.4,0c-0.4,0-1.2,0.4-1.5,0.7l-4.3,4.6c-0.4,0.5-1.1,1.4-1.4,2l-0.4,0.9c-0.2,0.5-0.4,1.5-0.4,2.1
				l0.1,1.1c0.1,1.1-0.4,2.6-1.1,3.5l-2,2.4c-0.8,0.9-2.2,1.5-3.4,1.4l-8-0.8c-0.5,0-1.3,0.2-1.7,0.5l-6.9,5.1
				c-0.5,0.4-1.2,1.2-1.5,1.7l-0.9,1.6c-0.4,0.6-0.9,1.7-1.2,2.4l-0.2,0.5c-0.4,1.1-1.7,2.2-2.8,2.4l-2.3,0.5
				C191.2,207.3,189.9,207.5,189,207.5z M178.4,143.4C178.3,143.4,178.3,143.4,178.4,143.4l-5.5,4.1c0,0,0,0,0,0.1c0,0,0,0.1,0,0.1
				l1.6,1.9c0.8,0.9,1.1,2.5,0.7,3.7l-1.3,3.9c-0.3,0.9-1,2.1-1.6,2.9l-5.1,5.9c-0.3,0.4-0.6,1.2-0.6,1.6c0,0.5,0.3,1.5,0.5,2
				l18.6,34.9c0.2,0.3,0.7,0.6,1,0.6h2.4c0.7,0,1.9-0.1,2.6-0.3l2.4-0.5c0.4-0.1,0.9-0.5,1-0.9l0.2-0.5c0.3-0.8,0.9-2,1.3-2.7
				l0.9-1.6c0.5-0.8,1.4-1.9,2.2-2.5l6.9-5.1c0.9-0.6,2.4-1.1,3.5-0.9l8,0.8c0.4,0,1-0.2,1.2-0.5l2-2.4c0.3-0.4,0.5-1.2,0.5-1.6
				l-0.1-1.1c-0.1-1,0.2-2.5,0.6-3.4l0.4-0.9c0.4-0.8,1.2-2,1.8-2.7l4.3-4.6c0.8-0.8,2.2-1.5,3.3-1.5l0.4,0c0.9,0,2.2,0.1,3.1,0.2
				l2.4,0.4l-3.1-23.6c-0.1-0.4-0.2-0.8-0.4-1.1c-0.1,0-0.1,0.1-0.2,0.1l-13.1,12.2c-0.9,0.9-1.8,0.6-2.1,0.5
				c-0.3-0.1-1.1-0.6-1.1-1.9v-3.3c0-0.6-0.2-1.7-0.5-2.2l-4.7-10.7c-0.2-0.5-0.9-1.4-1.3-1.8l-1.6-1.3c-0.4-0.3-1.2-0.6-1.7-0.6
				l-2,0c-0.9,0-2-0.2-2.7-0.8c-0.1,0-0.2,0.1-0.4,0.2l-17.2,10.8c-1.2,0.8-2.9,0.4-3.8-0.7l-3.6-5
				C178.5,143.4,178.4,143.4,178.4,143.4C178.4,143.4,178.4,143.4,178.4,143.4z"/>
		</g>
		<g>
			<path class="st0" d="M212.6,92.4l-1.5-0.8c-0.7-0.4-1.6-0.2-1.9,0.4c-0.4,0.6-1.3,1.1-2.1,1.1h-1.3c-0.8,0-1.8,0.5-2.3,1.1
				l-1,1.2c-0.5,0.6-0.9,1.8-0.9,2.6c0,0.8,0.6,1.7,1.3,2l2.1,0.8c0.7,0.3,1.9,0.1,2.5-0.3l6.8-4.8c0.6-0.5,0.8-1.2,0.4-1.7
				C214.2,93.4,213.3,92.7,212.6,92.4z"/>
			<path class="st1" d="M205.8,102.1c-0.5,0-0.9-0.1-1.3-0.2l-2.1-0.8c-1.2-0.5-2.1-1.8-2.1-3.1c0-1.1,0.5-2.5,1.2-3.3l1-1.2
				c0.7-0.9,2.2-1.6,3.3-1.6h1.3c0.4,0,0.9-0.3,1-0.5c0.7-1.1,2.3-1.5,3.6-0.8l1.5,0.8c0.8,0.4,1.9,1.2,2.4,1.8
				c0.4,0.5,0.6,1.1,0.5,1.7c-0.1,0.7-0.5,1.4-1.2,1.9l-6.8,4.8C207.6,101.9,206.7,102.1,205.8,102.1z M205.8,94.3
				c-0.4,0-1.1,0.3-1.3,0.6l-1,1.2c-0.3,0.4-0.6,1.3-0.6,1.8c0,0.3,0.3,0.7,0.5,0.8l2.1,0.8c0.3,0.1,1,0,1.3-0.2l6.8-4.8
				c-0.4-0.3-1-0.8-1.5-1l-1.5-0.8c-0.1-0.1-0.3,0-0.3,0c-0.6,0.9-1.9,1.6-3.2,1.6H205.8z"/>
		</g>
	</g>
	<g>
		<path class="st1" d="M107.5,24.5c-0.1,0-0.1,0-0.2,0l-0.2-0.1c-0.3-0.1-0.4-0.4-0.3-0.7c0.1-0.3,0.4-0.4,0.7-0.3l0.2,0.1
			c0.3,0.1,0.4,0.4,0.3,0.7C107.9,24.4,107.7,24.5,107.5,24.5z"/>
		<path class="st1" d="M129.1,44.1c-0.1,0-0.3-0.1-0.4-0.2l-0.3-0.4c-0.2-0.2-0.2-0.5,0-0.7c0.2-0.2,0.5-0.2,0.7,0l0.3,0.4
			c0.2,0.2,0.2,0.5,0,0.7C129.4,44.1,129.2,44.1,129.1,44.1z M127.1,42c-0.1,0-0.3-0.1-0.4-0.2l-0.3-0.4c-0.2-0.2-0.2-0.5,0-0.7
			c0.2-0.2,0.5-0.2,0.7,0l0.3,0.4c0.2,0.2,0.2,0.5,0,0.7C127.4,41.9,127.2,42,127.1,42z M125.1,39.8c-0.1,0-0.3-0.1-0.4-0.2
			l-0.3-0.4c-0.2-0.2-0.2-0.5,0-0.7c0.2-0.2,0.5-0.2,0.7,0l0.3,0.4c0.2,0.2,0.2,0.5,0,0.7C125.4,39.7,125.2,39.8,125.1,39.8z
			 M123.1,37.6c-0.1,0-0.3-0.1-0.4-0.2l-0.3-0.4c-0.2-0.2-0.2-0.5,0-0.7c0.2-0.2,0.5-0.2,0.7,0l0.3,0.4c0.2,0.2,0.2,0.5,0,0.7
			C123.4,37.5,123.2,37.6,123.1,37.6z M121.1,35.4c-0.1,0-0.3-0.1-0.4-0.2l-0.3-0.4c-0.2-0.2-0.2-0.5,0-0.7c0.2-0.2,0.5-0.2,0.7,0
			l0.3,0.4c0.2,0.2,0.2,0.5,0,0.7C121.4,35.3,121.2,35.4,121.1,35.4z M119.1,33.2c-0.1,0-0.3-0.1-0.4-0.2l-0.3-0.4
			c-0.2-0.2-0.2-0.5,0-0.7c0.2-0.2,0.5-0.2,0.7,0l0.3,0.4c0.2,0.2,0.2,0.5,0,0.7C119.4,33.2,119.2,33.2,119.1,33.2z M117.1,31
			c-0.1,0-0.3-0.1-0.4-0.2l-0.3-0.4c-0.2-0.2-0.2-0.5,0-0.7c0.2-0.2,0.5-0.2,0.7,0l0.3,0.4c0.2,0.2,0.2,0.5,0,0.7
			C117.3,31,117.2,31,117.1,31z M115.1,28.8c-0.1,0-0.3-0.1-0.4-0.2l-0.3-0.4c-0.2-0.2-0.2-0.5,0-0.7c0.2-0.2,0.5-0.2,0.7,0l0.3,0.4
			c0.2,0.2,0.2,0.5,0,0.7C115.3,28.8,115.2,28.8,115.1,28.8z M113,26.7c-0.1,0-0.1,0-0.2,0l-0.5-0.2c-0.3-0.1-0.4-0.4-0.3-0.7
			c0.1-0.3,0.4-0.4,0.7-0.3l0.5,0.2c0.3,0.1,0.4,0.4,0.3,0.7C113.4,26.6,113.2,26.7,113,26.7z M110.3,25.6c-0.1,0-0.1,0-0.2,0
			l-0.5-0.2c-0.3-0.1-0.4-0.4-0.3-0.7c0.1-0.3,0.4-0.4,0.7-0.3l0.5,0.2c0.3,0.1,0.4,0.4,0.3,0.7C110.7,25.5,110.5,25.6,110.3,25.6z"
			/>
		<path class="st1" d="M130.8,46.3c-0.1,0-0.3-0.1-0.4-0.2c-0.1-0.1-0.2-0.4-0.1-0.5c-0.1-0.2,0-0.4,0.1-0.5c0.2-0.2,0.5-0.2,0.7,0
			l0.2,0.2c0.2,0.2,0.2,0.5,0,0.7l-0.2,0.2C131,46.3,130.9,46.3,130.8,46.3z"/>
		<path class="st1" d="M124.6,52.4c-0.1,0-0.3-0.1-0.4-0.2c-0.2-0.2-0.2-0.5,0-0.7l0.3-0.3c0.2-0.2,0.5-0.2,0.7,0
			c0.2,0.2,0.2,0.5,0,0.7l-0.3,0.3C124.9,52.3,124.8,52.4,124.6,52.4z M126.7,50.4c-0.1,0-0.3-0.1-0.4-0.2c-0.2-0.2-0.2-0.5,0-0.7
			l0.3-0.3c0.2-0.2,0.5-0.2,0.7,0c0.2,0.2,0.2,0.5,0,0.7l-0.3,0.3C126.9,50.3,126.8,50.4,126.7,50.4z M128.7,48.4
			c-0.1,0-0.3-0.1-0.4-0.2c-0.2-0.2-0.2-0.5,0-0.7l0.3-0.3c0.2-0.2,0.5-0.2,0.7,0c0.2,0.2,0.2,0.5,0,0.7l-0.3,0.3
			C129,48.3,128.9,48.4,128.7,48.4z"/>
		<path class="st1" d="M122.7,54.3c-0.1,0-0.1,0-0.2,0l-0.2-0.1c-0.3-0.1-0.4-0.4-0.3-0.6c0.1-0.3,0.3-0.4,0.6-0.3
			c0.2-0.2,0.5-0.1,0.7,0c0.2,0.2,0.2,0.5,0,0.7l-0.2,0.2C123,54.2,122.9,54.3,122.7,54.3z"/>
		<path class="st1" d="M121.1,53.7c-0.1,0-0.1,0-0.2,0l-0.3-0.1c-0.3-0.1-0.4-0.4-0.3-0.6c0.1-0.3,0.4-0.4,0.6-0.3l0.3,0.1
			c0.3,0.1,0.4,0.4,0.3,0.6C121.5,53.6,121.3,53.7,121.1,53.7z"/>
		<path class="st1" d="M118.9,53.3c-0.2,0-0.3-0.1-0.4-0.2c-0.1-0.2-0.1-0.5,0.2-0.7l0.2-0.1c0.1-0.1,0.3-0.1,0.4-0.1l0.2,0.1
			c0.3,0.1,0.4,0.4,0.3,0.6c-0.1,0.3-0.4,0.4-0.6,0.3l0,0l0,0C119.1,53.2,119,53.3,118.9,53.3z"/>
		<path class="st1" d="M116.3,54.9c-0.2,0-0.3-0.1-0.4-0.2c-0.1-0.2-0.1-0.5,0.2-0.7l0.4-0.3c0.2-0.1,0.5-0.1,0.7,0.2
			c0.1,0.2,0.1,0.5-0.2,0.7l-0.4,0.3C116.5,54.9,116.4,54.9,116.3,54.9z"/>
		<path class="st1" d="M113.9,56.4c-0.1,0-0.2,0-0.3-0.1l-0.2-0.2c-0.2-0.2-0.2-0.5-0.1-0.7c0.2-0.2,0.4-0.2,0.6-0.1
			c0.2-0.1,0.5,0,0.6,0.2c0.1,0.2,0.1,0.5-0.2,0.7l-0.2,0.1C114.1,56.4,114,56.4,113.9,56.4z"/>
		<path class="st1" d="M112,54.8c-0.1,0-0.2,0-0.3-0.1l-0.3-0.3c-0.2-0.2-0.2-0.5-0.1-0.7c0.2-0.2,0.5-0.2,0.7-0.1l0.3,0.3
			c0.2,0.2,0.2,0.5,0.1,0.7C112.3,54.8,112.2,54.8,112,54.8z M110,53.3c0,0-0.1,0-0.1,0l-0.4-0.1c-0.3-0.1-0.4-0.4-0.3-0.6
			c0.1-0.3,0.4-0.4,0.6-0.3l0.4,0.1c0.3,0.1,0.4,0.4,0.3,0.6C110.4,53.1,110.2,53.3,110,53.3z"/>
		<path class="st1" d="M107.3,52.7c-0.2,0-0.5-0.2-0.5-0.4l0-0.2c0-0.2,0-0.3,0.2-0.5c0.1-0.1,0.3-0.2,0.5-0.1l0.2,0.1
			c0.3,0.1,0.4,0.4,0.3,0.6c0,0.1-0.1,0.2-0.3,0.3C107.7,52.6,107.6,52.7,107.3,52.7C107.4,52.7,107.4,52.7,107.3,52.7z"/>
		<path class="st1" d="M108,56.1c-0.2,0-0.5-0.2-0.5-0.4l-0.1-0.6c-0.1-0.3,0.1-0.5,0.4-0.6c0.3-0.1,0.5,0.1,0.6,0.4l0.1,0.6
			C108.5,55.8,108.3,56.1,108,56.1C108,56.1,108,56.1,108,56.1z"/>
		<path class="st1" d="M109.5,58.9C109.5,58.9,109.5,58.9,109.5,58.9c-0.3,0-0.5-0.3-0.5-0.6l0,0l0,0c-0.2-0.2-0.2-0.5,0-0.7
			c0.2-0.2,0.5-0.2,0.7,0l0.2,0.2c0.1,0.1,0.2,0.3,0.1,0.4l0,0.3C110,58.8,109.8,58.9,109.5,58.9z"/>
		<path class="st1" d="M109.2,61.7h-0.3c-0.3,0-0.5-0.2-0.5-0.5c0-0.2,0.1-0.4,0.3-0.5c0.1-0.2,0.3-0.3,0.5-0.3
			c0.3,0,0.5,0.3,0.4,0.6l0,0.3C109.7,61.5,109.4,61.7,109.2,61.7z"/>
		<path class="st1" d="M106.7,61.7h-0.5c-0.3,0-0.5-0.2-0.5-0.5c0-0.3,0.2-0.5,0.5-0.5h0.5c0.3,0,0.5,0.2,0.5,0.5
			C107.2,61.5,106.9,61.7,106.7,61.7z M103.9,61.7h-0.5c-0.3,0-0.5-0.2-0.5-0.5c0-0.3,0.2-0.5,0.5-0.5h0.5c0.3,0,0.5,0.2,0.5,0.5
			C104.4,61.5,104.2,61.7,103.9,61.7z M101.2,61.7h-0.5c-0.3,0-0.5-0.2-0.5-0.5c0-0.3,0.2-0.5,0.5-0.5h0.5c0.3,0,0.5,0.2,0.5,0.5
			C101.7,61.5,101.5,61.7,101.2,61.7z"/>
		<path class="st1" d="M98.1,62C98.1,62,98.1,62,98.1,62c-0.3,0-0.5-0.3-0.5-0.6l0-0.3c0-0.3,0.2-0.4,0.5-0.4h0.3
			c0.3,0,0.5,0.2,0.5,0.5c0,0.2-0.1,0.4-0.3,0.5C98.5,61.9,98.3,62,98.1,62z"/>
		<path class="st1" d="M97.8,64.5C97.8,64.5,97.8,64.5,97.8,64.5c-0.3,0-0.5-0.3-0.5-0.6l0.1-0.4c0-0.3,0.3-0.5,0.6-0.4
			c0.3,0,0.5,0.3,0.4,0.6L98.3,64C98.3,64.3,98.1,64.5,97.8,64.5z"/>
		<path class="st1" d="M97.5,66.8h-0.3c-0.3,0-0.5-0.2-0.5-0.5c0-0.2,0.1-0.4,0.3-0.5c0.1-0.2,0.3-0.3,0.5-0.3
			c0.3,0,0.5,0.3,0.4,0.6l0,0.3C98,66.6,97.8,66.8,97.5,66.8z"/>
		<path class="st1" d="M94.4,66.8h-0.6c-0.3,0-0.5-0.2-0.5-0.5c0-0.3,0.2-0.5,0.5-0.5h0.6c0.3,0,0.5,0.2,0.5,0.5
			C94.9,66.6,94.7,66.8,94.4,66.8z M91,66.8h-0.6c-0.3,0-0.5-0.2-0.5-0.5c0-0.3,0.2-0.5,0.5-0.5H91c0.3,0,0.5,0.2,0.5,0.5
			C91.5,66.6,91.3,66.8,91,66.8z"/>
		<path class="st1" d="M87.5,66.8h-0.3c-0.3,0-0.5-0.2-0.5-0.5V66c0-0.3,0.2-0.5,0.5-0.5c0.2,0,0.4,0.1,0.5,0.3
			c0.2,0.1,0.3,0.3,0.3,0.5C88.1,66.6,87.8,66.8,87.5,66.8z"/>
		<path class="st1" d="M87.3,63.9c-0.2,0-0.4-0.1-0.5-0.3c-0.2-0.1-0.3-0.3-0.3-0.5c0-0.3,0.3-0.5,0.5-0.5l0.3,0
			c0.3,0,0.5,0.2,0.5,0.5v0.3C87.8,63.7,87.6,63.9,87.3,63.9z"/>
		<path class="st1" d="M84.8,63.5C84.8,63.5,84.8,63.5,84.8,63.5l-0.5,0c-0.3,0-0.5-0.3-0.5-0.5c0-0.3,0.3-0.5,0.5-0.5l0.5,0
			c0.3,0,0.5,0.3,0.5,0.5C85.3,63.3,85,63.5,84.8,63.5z M82.1,63.3C82.1,63.3,82.1,63.3,82.1,63.3l-0.5,0c-0.3,0-0.5-0.3-0.5-0.5
			c0-0.3,0.3-0.5,0.5-0.5l0.5,0c0.3,0,0.5,0.3,0.5,0.5C82.6,63.1,82.3,63.3,82.1,63.3z M79.4,63.2C79.4,63.2,79.3,63.2,79.4,63.2
			l-0.5,0c-0.3,0-0.5-0.3-0.5-0.5c0-0.3,0.3-0.5,0.5-0.5l0.5,0c0.3,0,0.5,0.3,0.5,0.5C79.9,63,79.6,63.2,79.4,63.2z"/>
		<path class="st1" d="M76.7,63C76.6,63,76.6,63,76.7,63l-0.3,0c-0.3,0-0.5-0.2-0.5-0.5v-0.3c0-0.3,0.2-0.5,0.5-0.5
			c0.2,0,0.4,0.1,0.5,0.3c0.2,0.1,0.3,0.3,0.3,0.5C77.1,62.8,76.9,63,76.7,63z"/>
		<path class="st1" d="M76.4,61.3c-0.2,0-0.4-0.1-0.5-0.3c-0.2-0.1-0.3-0.3-0.3-0.5c0-0.3,0.2-0.5,0.5-0.5l0.3,0
			c0.3,0,0.5,0.2,0.5,0.5v0.3C76.9,61.1,76.7,61.3,76.4,61.3z"/>
		<path class="st1" d="M73.6,61C73.6,61,73.6,61,73.6,61l-0.5,0c-0.3,0-0.5-0.2-0.5-0.5c0-0.3,0.3-0.5,0.5-0.5l0.5,0
			c0.3,0,0.5,0.2,0.5,0.5C74.1,60.8,73.9,61,73.6,61z M70.6,61C70.6,61,70.6,61,70.6,61l-0.5,0c-0.3,0-0.5-0.2-0.5-0.5
			c0-0.3,0.3-0.5,0.5-0.5l0.5,0c0.3,0,0.5,0.2,0.5,0.5C71.1,60.8,70.9,61,70.6,61z M67.6,60.9C67.6,60.9,67.6,60.9,67.6,60.9l-0.5,0
			c-0.3,0-0.5-0.2-0.5-0.5c0-0.3,0.2-0.5,0.5-0.5c0,0,0,0,0,0l0.5,0c0.3,0,0.5,0.2,0.5,0.5C68.1,60.7,67.9,60.9,67.6,60.9z
			 M64.6,60.9C64.6,60.9,64.6,60.9,64.6,60.9l-0.5,0c-0.3,0-0.5-0.2-0.5-0.5c0-0.3,0.3-0.5,0.5-0.5l0.5,0c0.3,0,0.5,0.2,0.5,0.5
			C65.1,60.6,64.9,60.9,64.6,60.9z M61.6,60.8C61.6,60.8,61.6,60.8,61.6,60.8l-0.5,0c-0.3,0-0.5-0.2-0.5-0.5c0-0.3,0.3-0.5,0.5-0.5
			l0.5,0c0.3,0,0.5,0.2,0.5,0.5C62.1,60.6,61.9,60.8,61.6,60.8z M58.6,60.7C58.6,60.7,58.6,60.7,58.6,60.7l-0.5,0
			c-0.3,0-0.5-0.2-0.5-0.5c0-0.3,0.2-0.5,0.5-0.5c0,0,0,0,0,0l0.5,0c0.3,0,0.5,0.2,0.5,0.5C59.1,60.5,58.9,60.7,58.6,60.7z
			 M55.6,60.7C55.6,60.7,55.6,60.7,55.6,60.7l-0.5,0c-0.3,0-0.5-0.2-0.5-0.5c0-0.3,0.2-0.5,0.5-0.5c0,0,0,0,0,0l0.5,0
			c0.3,0,0.5,0.2,0.5,0.5C56.1,60.5,55.9,60.7,55.6,60.7z M52.6,60.6C52.6,60.6,52.6,60.6,52.6,60.6l-0.5,0c-0.3,0-0.5-0.2-0.5-0.5
			c0-0.3,0.2-0.5,0.5-0.5c0,0,0,0,0,0l0.5,0c0.3,0,0.5,0.2,0.5,0.5C53.1,60.4,52.9,60.6,52.6,60.6z M49.6,60.6
			C49.6,60.6,49.6,60.6,49.6,60.6l-0.5,0c-0.3,0-0.5-0.2-0.5-0.5c0-0.3,0.2-0.5,0.5-0.5c0,0,0,0,0,0l0.5,0c0.3,0,0.5,0.2,0.5,0.5
			C50.1,60.4,49.9,60.6,49.6,60.6z M46.6,60.5C46.6,60.5,46.6,60.5,46.6,60.5l-0.5,0c-0.3,0-0.5-0.2-0.5-0.5c0-0.3,0.2-0.5,0.5-0.5
			c0,0,0,0,0,0l0.5,0c0.3,0,0.5,0.2,0.5,0.5C47.1,60.3,46.8,60.5,46.6,60.5z M43.6,60.5C43.6,60.5,43.6,60.5,43.6,60.5l-0.5,0
			c-0.3,0-0.5-0.2-0.5-0.5c0-0.3,0.3-0.5,0.5-0.5l0.5,0c0.3,0,0.5,0.2,0.5,0.5C44.1,60.2,43.8,60.5,43.6,60.5z M40.6,60.4
			C40.6,60.4,40.5,60.4,40.6,60.4l-0.5,0c-0.3,0-0.5-0.2-0.5-0.5c0-0.3,0.2-0.5,0.5-0.5c0,0,0,0,0,0l0.5,0c0.3,0,0.5,0.2,0.5,0.5
			C41.1,60.2,40.8,60.4,40.6,60.4z"/>
		<path class="st1" d="M37.1,60.5c-0.1,0-0.2,0-0.3-0.1c-0.2-0.2-0.3-0.5-0.1-0.7l0.2-0.2c0.1-0.1,0.3-0.2,0.4-0.2l0.3,0
			c0.3,0,0.5,0.2,0.5,0.5c0,0.3-0.2,0.5-0.5,0.5C37.4,60.5,37.3,60.5,37.1,60.5z"/>
		<path class="st1" d="M34.8,61.9h-0.1c-0.3,0-0.5-0.2-0.5-0.5s0.2-0.5,0.5-0.5h0.1l0.3-0.1c0.3-0.1,0.5,0.1,0.6,0.4
			c0.1,0.3-0.1,0.5-0.4,0.6l-0.3,0.1C34.8,61.8,34.8,61.9,34.8,61.9z M32.1,61.9h-0.5c-0.3,0-0.5-0.2-0.5-0.5s0.2-0.5,0.5-0.5h0.5
			c0.3,0,0.5,0.2,0.5,0.5S32.4,61.9,32.1,61.9z"/>
		<path class="st1" d="M29.1,61.9h-0.3c-0.3,0-0.5-0.2-0.5-0.5s0.2-0.5,0.5-0.5h0.3c0.3,0,0.5,0.2,0.5,0.5S29.3,61.9,29.1,61.9z"/>
	</g>
	<path class="st1" d="M75.2,139.9c-0.1,0-0.2,0-0.3-0.1c-0.2-0.2-0.3-0.5-0.1-0.7l0.3-0.4c0.2-0.2,0.5-0.3,0.7-0.1
		c0.2,0.2,0.3,0.5,0.1,0.7l-0.3,0.4C75.5,139.8,75.3,139.9,75.2,139.9z M77,137.5c-0.2,0-0.4-0.1-0.5-0.4c-0.1-0.3,0.1-0.6,0.3-0.6
		l0.5-0.2c0.3-0.1,0.6,0.1,0.6,0.3c0.1,0.3-0.1,0.6-0.3,0.6l-0.5,0.2C77.1,137.5,77,137.5,77,137.5z M79.9,136.5
		c-0.2,0-0.4-0.1-0.5-0.4c-0.1-0.3,0-0.5,0.3-0.6c0,0,0.1,0,0.1,0l0.5,0c0.3,0,0.5,0.2,0.5,0.5c0,0.3-0.2,0.5-0.5,0.5L79.9,136.5
		C79.9,136.5,79.9,136.5,79.9,136.5z M82.9,136.3c-0.3,0-0.5-0.2-0.5-0.5c0-0.3,0.2-0.5,0.5-0.5l0.5,0c0.3,0,0.5,0.2,0.5,0.5
		c0,0.3-0.2,0.5-0.5,0.5L82.9,136.3C82.9,136.3,82.9,136.3,82.9,136.3z M85.9,136.1c-0.3,0-0.5-0.2-0.5-0.5c0-0.3,0.2-0.5,0.5-0.5
		l0.5,0c0.3,0,0.5,0.2,0.5,0.5c0,0.3-0.2,0.5-0.5,0.5L85.9,136.1C85.9,136.1,85.9,136.1,85.9,136.1z M88.9,135.8
		c-0.3,0-0.5-0.2-0.5-0.5c0-0.3,0.2-0.5,0.5-0.5l0.5,0c0.3,0,0.5,0.2,0.5,0.5c0,0.3-0.2,0.5-0.5,0.5L88.9,135.8
		C89,135.8,88.9,135.8,88.9,135.8z M92,135.6c-0.3,0-0.5-0.2-0.5-0.5c0-0.3,0.2-0.5,0.5-0.5l0.5,0c0.3,0,0.5,0.2,0.5,0.5
		c0,0.3-0.2,0.5-0.5,0.5L92,135.6C92,135.6,92,135.6,92,135.6z M94.9,135c-0.2,0-0.3-0.1-0.4-0.3c-0.1-0.2-0.1-0.6,0.2-0.7l0.4-0.2
		c0.2-0.1,0.6-0.1,0.7,0.2c0.1,0.2,0.1,0.6-0.2,0.7l-0.4,0.2C95.1,134.9,95,135,94.9,135z M97.3,133.3c-0.1,0-0.2,0-0.2-0.1
		c-0.2-0.1-0.3-0.4-0.2-0.7l0.2-0.4c0.1-0.2,0.4-0.3,0.7-0.2c0.2,0.1,0.3,0.4,0.2,0.7l-0.2,0.4C97.7,133.2,97.5,133.3,97.3,133.3z
		 M98.7,130.6c-0.1,0-0.2,0-0.2-0.1c-0.2-0.1-0.3-0.4-0.2-0.7l0-0.2c0-0.3,0.2-0.5,0.5-0.5c0.3,0,0.5,0.2,0.5,0.5l0,0.4
		c0,0.1,0,0.2-0.1,0.3l-0.1,0.1C99.1,130.5,98.9,130.6,98.7,130.6z M98.6,127.6c-0.1,0-0.3-0.1-0.4-0.1h0c-0.3,0-0.5-0.2-0.5-0.5
		s0.2-0.5,0.5-0.5h0.4c0.3,0,0.5,0.2,0.5,0.5l0,0.1C99.1,127.3,98.9,127.5,98.6,127.6C98.6,127.6,98.6,127.6,98.6,127.6z
		 M95.7,127.3c-0.2,0-0.3-0.1-0.4-0.2l-0.3-0.4c-0.2-0.2-0.1-0.5,0.1-0.7c0.2-0.2,0.5-0.1,0.7,0.1l0.3,0.4c0.2,0.2,0.1,0.5-0.1,0.7
		C95.9,127.3,95.8,127.3,95.7,127.3z M94.8,124.6c-0.3,0-0.5-0.2-0.5-0.5l0-0.5c0-0.3,0.2-0.5,0.5-0.5c0.3,0,0.5,0.2,0.5,0.5l0,0.5
		C95.4,124.3,95.1,124.6,94.8,124.6C94.9,124.6,94.8,124.6,94.8,124.6z M94.8,121.5c-0.3,0-0.5-0.2-0.5-0.5l0-0.5
		c0-0.3,0.2-0.5,0.5-0.5c0.3,0,0.5,0.2,0.5,0.5l0,0.5C95.3,121.3,95,121.5,94.8,121.5C94.8,121.5,94.8,121.5,94.8,121.5z
		 M94.7,118.5c-0.3,0-0.5-0.2-0.5-0.5l0-0.5c0-0.3,0.2-0.5,0.5-0.5c0.3,0,0.5,0.2,0.5,0.5l0,0.5C95.2,118.2,95,118.5,94.7,118.5
		C94.7,118.5,94.7,118.5,94.7,118.5z M96.7,117.2c-0.2,0-0.4-0.2-0.5-0.4c-0.1-0.3,0.1-0.5,0.4-0.6l0.5-0.1c0.3-0.1,0.5,0.1,0.6,0.4
		c0.1,0.3-0.1,0.5-0.4,0.6L96.7,117.2C96.8,117.1,96.7,117.2,96.7,117.2z M97.8,115.1c-0.3,0-0.5-0.2-0.5-0.5l0-0.5
		c0-0.3,0.2-0.5,0.5-0.5c0.3,0,0.5,0.2,0.5,0.5l0,0.5C98.4,114.9,98.1,115.1,97.8,115.1C97.9,115.1,97.9,115.1,97.8,115.1z
		 M97.7,112.1c-0.3,0-0.5-0.2-0.5-0.5l0-0.5c0-0.3,0.2-0.5,0.5-0.5c0.3,0,0.5,0.2,0.5,0.5l0,0.5C98.2,111.8,98,112.1,97.7,112.1
		C97.7,112.1,97.7,112.1,97.7,112.1z M97.6,109.1c-0.3,0-0.5-0.2-0.5-0.5l0-0.5c0-0.3,0.2-0.5,0.5-0.5c0.3,0,0.5,0.2,0.5,0.5l0,0.5
		C98.1,108.8,97.9,109,97.6,109.1C97.6,109.1,97.6,109.1,97.6,109.1z M97.4,106c-0.3,0-0.5-0.2-0.5-0.5l0-0.5c0-0.3,0.2-0.5,0.5-0.5
		c0.3,0,0.5,0.2,0.5,0.5l0,0.5C98,105.8,97.7,106,97.4,106C97.5,106,97.5,106,97.4,106z M100.2,105.4h-0.4c-0.3,0-0.5-0.2-0.5-0.5
		s0.2-0.5,0.5-0.5h0.1c0.1-0.1,0.2-0.1,0.4-0.1c0.3,0,0.5,0.3,0.4,0.6l0,0.1C100.7,105.2,100.5,105.4,100.2,105.4z M100.5,102.8
		C100.5,102.8,100.5,102.8,100.5,102.8c-0.3,0-0.5-0.3-0.5-0.6l0.1-0.5c0-0.3,0.3-0.5,0.6-0.4c0.3,0,0.5,0.3,0.4,0.6l-0.1,0.5
		C101,102.6,100.8,102.8,100.5,102.8z M100.9,99.7C100.9,99.7,100.9,99.7,100.9,99.7c-0.3,0-0.5-0.3-0.5-0.6l0.1-0.5
		c0-0.3,0.3-0.5,0.6-0.4c0.3,0,0.5,0.3,0.4,0.6l-0.1,0.5C101.4,99.6,101.1,99.7,100.9,99.7z M101.3,96.7
		C101.2,96.7,101.2,96.7,101.3,96.7c-0.3,0-0.5-0.3-0.5-0.6l0.1-0.5c0-0.3,0.3-0.5,0.6-0.4c0.3,0,0.5,0.3,0.4,0.6l-0.1,0.5
		C101.7,96.5,101.5,96.7,101.3,96.7z M101.6,93.7C101.6,93.7,101.6,93.7,101.6,93.7c-0.3,0-0.5-0.3-0.5-0.6l0.1-0.5
		c0-0.3,0.3-0.5,0.6-0.4c0.3,0,0.5,0.3,0.4,0.6l-0.1,0.5C102.1,93.5,101.9,93.7,101.6,93.7z M101.5,90.7c-0.2,0-0.4-0.1-0.5-0.4
		l-0.1-0.5c-0.1-0.3,0.1-0.6,0.3-0.6c0.3-0.1,0.6,0.1,0.6,0.3l0.1,0.5c0.1,0.3-0.1,0.6-0.3,0.6C101.6,90.7,101.5,90.7,101.5,90.7z
		 M100.6,87.8c-0.2,0-0.4-0.1-0.5-0.4L100,87c-0.1-0.3,0.1-0.6,0.3-0.6c0.3-0.1,0.6,0.1,0.6,0.3l0.1,0.5c0.1,0.3-0.1,0.6-0.3,0.6
		C100.7,87.8,100.7,87.8,100.6,87.8z M98.2,86.9h-0.5c-0.3,0-0.5-0.2-0.5-0.5c0-0.3,0.2-0.5,0.5-0.5h0.5c0.3,0,0.5,0.2,0.5,0.5
		C98.8,86.7,98.5,86.9,98.2,86.9z M95.2,86.9H95c-0.3,0-0.5-0.2-0.5-0.5v-0.3c0-0.3,0.2-0.5,0.5-0.5c0.2,0,0.5,0.2,0.5,0.4
		c0.1,0.1,0.2,0.2,0.2,0.4C95.7,86.7,95.5,86.9,95.2,86.9z M95,84.1c-0.3,0-0.5-0.2-0.5-0.5v-0.5c0-0.3,0.2-0.5,0.5-0.5
		s0.5,0.2,0.5,0.5v0.5C95.5,83.8,95.3,84.1,95,84.1z M92.9,82.7c0,0-0.1,0-0.1,0l-0.5-0.1c-0.3-0.1-0.4-0.3-0.4-0.6
		c0.1-0.3,0.3-0.4,0.6-0.4l0.5,0.1c0.3,0.1,0.4,0.3,0.4,0.6C93.3,82.5,93.1,82.7,92.9,82.7z M89.9,81.9c0,0-0.1,0-0.1,0l-0.2-0.1
		c-0.3-0.1-0.4-0.3-0.4-0.6l0.1-0.2c0.1-0.3,0.3-0.4,0.6-0.4c0.2,0,0.4,0.2,0.4,0.4c0.2,0.1,0.2,0.3,0.2,0.5
		C90.4,81.8,90.2,81.9,89.9,81.9z M90.3,79.1c0,0-0.1,0-0.1,0c-0.3-0.1-0.4-0.3-0.4-0.6l0.1-0.5c0.1-0.3,0.3-0.4,0.6-0.4
		c0.3,0.1,0.4,0.3,0.4,0.6l-0.1,0.5C90.8,79,90.5,79.1,90.3,79.1z M91,76.2c0,0-0.1,0-0.1,0c-0.3-0.1-0.4-0.3-0.4-0.6l0.1-0.5
		c0.1-0.3,0.3-0.4,0.6-0.4c0.3,0.1,0.4,0.3,0.4,0.6l-0.1,0.5C91.4,76,91.2,76.2,91,76.2z M91.7,73.2c0,0-0.1,0-0.1,0
		c-0.3-0.1-0.4-0.3-0.4-0.6l0.1-0.5c0.1-0.3,0.3-0.4,0.6-0.4c0.3,0.1,0.4,0.3,0.4,0.6l-0.1,0.5C92.1,73,91.9,73.2,91.7,73.2z
		 M92.3,70.2c0,0-0.1,0-0.1,0c-0.3-0.1-0.4-0.3-0.4-0.6l0.1-0.5c0.1-0.3,0.3-0.4,0.6-0.4c0.3,0.1,0.4,0.3,0.4,0.6l-0.1,0.5
		C92.8,70.1,92.6,70.2,92.3,70.2z M93,67.3c0,0-0.1,0-0.1,0c-0.3-0.1-0.4-0.3-0.4-0.6l0.1-0.5c0.1-0.3,0.3-0.4,0.6-0.4
		c0.3,0.1,0.4,0.3,0.4,0.6l-0.1,0.5C93.4,67.1,93.2,67.3,93,67.3z"/>
	<path class="st1" d="M147.4,73.6c-0.3,0-0.5-0.2-0.5-0.4c0-0.3,0.2-0.5,0.4-0.6l0.5-0.1c0.3,0,0.5,0.2,0.6,0.4
		c0,0.3-0.2,0.5-0.4,0.6L147.4,73.6C147.4,73.6,147.4,73.6,147.4,73.6z M150.4,73.2c-0.3,0-0.5-0.2-0.5-0.4c0-0.3,0.2-0.5,0.4-0.6
		l0.5-0.1c0.3,0,0.5,0.2,0.6,0.4c0,0.3-0.2,0.5-0.4,0.6L150.4,73.2C150.4,73.2,150.4,73.2,150.4,73.2z M145,72.9c-0.1,0-0.1,0-0.2,0
		l-0.5-0.2c-0.3-0.1-0.4-0.4-0.3-0.7c0.1-0.3,0.4-0.4,0.7-0.3l0.5,0.2c0.3,0.1,0.4,0.4,0.3,0.7C145.4,72.7,145.2,72.9,145,72.9z
		 M153.4,72.8c-0.3,0-0.5-0.2-0.5-0.4c0-0.3,0.2-0.5,0.4-0.6l0.5-0.1c0.3,0,0.5,0.2,0.6,0.4c0,0.3-0.2,0.5-0.4,0.6L153.4,72.8
		C153.5,72.8,153.4,72.8,153.4,72.8z M156.4,72.4c-0.3,0-0.5-0.2-0.5-0.4c0-0.3,0.2-0.5,0.4-0.6l0.5-0.1c0.3,0,0.5,0.2,0.6,0.4
		c0,0.3-0.2,0.5-0.4,0.6L156.4,72.4C156.5,72.4,156.4,72.4,156.4,72.4z M159.4,72c-0.3,0-0.5-0.2-0.5-0.4c0-0.3,0.2-0.5,0.4-0.6
		l0.5-0.1c0.3,0,0.5,0.2,0.6,0.4c0,0.3-0.2,0.5-0.4,0.6L159.4,72C159.5,72,159.5,72,159.4,72z M190.1,71.9c0,0-0.1,0-0.1,0l-0.5-0.1
		c-0.3-0.1-0.4-0.3-0.4-0.6c0.1-0.3,0.3-0.4,0.6-0.4l0.5,0.1c0.3,0.1,0.4,0.3,0.4,0.6C190.5,71.8,190.3,71.9,190.1,71.9z
		 M162.4,71.6c-0.2,0-0.5-0.2-0.5-0.4c0-0.3,0.1-0.5,0.4-0.6l0.5-0.1c0.3,0,0.5,0.1,0.6,0.4c0,0.3-0.1,0.5-0.4,0.6L162.4,71.6
		C162.5,71.6,162.5,71.6,162.4,71.6z M187.1,71.3c0,0-0.1,0-0.1,0l-0.5-0.1c-0.3-0.1-0.4-0.3-0.4-0.6c0.1-0.3,0.3-0.4,0.6-0.4
		l0.5,0.1c0.3,0.1,0.4,0.3,0.4,0.6C187.6,71.1,187.3,71.3,187.1,71.3z M165.4,71.1c-0.2,0-0.5-0.2-0.5-0.4c0-0.3,0.1-0.5,0.4-0.6
		l0.5-0.1c0.3,0,0.5,0.1,0.6,0.4c0,0.3-0.1,0.5-0.4,0.6L165.4,71.1C165.5,71.1,165.5,71.1,165.4,71.1z M142.6,71.1
		c-0.1,0-0.2,0-0.3-0.1l-0.4-0.3c-0.2-0.2-0.2-0.5-0.1-0.7c0.2-0.2,0.5-0.2,0.7-0.1l0.4,0.3c0.2,0.2,0.2,0.5,0.1,0.7
		C142.8,71,142.7,71.1,142.6,71.1z M168.5,70.8c-0.3,0-0.5-0.2-0.5-0.5c0-0.3,0.2-0.5,0.5-0.5l0.5,0c0.3,0,0.5,0.2,0.5,0.5
		c0,0.3-0.2,0.5-0.5,0.5L168.5,70.8C168.5,70.8,168.5,70.8,168.5,70.8z M171.5,70.8c-0.3,0-0.5-0.2-0.5-0.5c0-0.3,0.2-0.5,0.5-0.5
		l0.5,0c0.3,0,0.5,0.2,0.5,0.5c0,0.3-0.2,0.5-0.5,0.5L171.5,70.8C171.5,70.8,171.5,70.8,171.5,70.8z M174.5,70.7
		c-0.3,0-0.5-0.2-0.5-0.5c0-0.3,0.2-0.5,0.5-0.5l0.5,0c0.3,0,0.5,0.2,0.5,0.5c0,0.3-0.2,0.5-0.5,0.5L174.5,70.7
		C174.5,70.7,174.5,70.7,174.5,70.7z M177.6,70.7c-0.3,0-0.5-0.2-0.5-0.5c0-0.3,0.2-0.5,0.5-0.5l0.5,0c0.3,0,0.5,0.2,0.5,0.5
		c0,0.3-0.2,0.5-0.5,0.5L177.6,70.7C177.6,70.7,177.6,70.7,177.6,70.7z M180.6,70.6c-0.3,0-0.5-0.2-0.5-0.5c0-0.3,0.2-0.5,0.5-0.5
		l0.5,0c0.3,0,0.5,0.2,0.5,0.5s-0.2,0.5-0.5,0.5L180.6,70.6C180.6,70.6,180.6,70.6,180.6,70.6z M183.6,70.6c-0.3,0-0.5-0.2-0.5-0.5
		c0-0.3,0.2-0.5,0.5-0.5l0.5,0c0,0,0.1,0,0.1,0c0.3,0.1,0.5,0.3,0.4,0.6c-0.1,0.3-0.3,0.4-0.5,0.4L183.6,70.6
		C183.6,70.6,183.6,70.6,183.6,70.6z M140.2,69.2c-0.1,0-0.2,0-0.3-0.1l-0.4-0.3c-0.2-0.2-0.2-0.5-0.1-0.7c0.2-0.2,0.5-0.2,0.7-0.1
		l0.4,0.3c0.2,0.2,0.2,0.5,0.1,0.7C140.5,69.1,140.4,69.2,140.2,69.2z M138.9,66.7c-0.2,0-0.5-0.2-0.5-0.4l-0.1-0.5
		c0-0.3,0.2-0.5,0.4-0.6c0.3,0,0.5,0.2,0.6,0.4l0.1,0.5C139.5,66.4,139.3,66.6,138.9,66.7C139,66.7,138.9,66.7,138.9,66.7z
		 M138.5,63.6c-0.2,0-0.5-0.2-0.5-0.4l-0.1-0.5c0-0.3,0.2-0.5,0.4-0.6c0.3,0,0.5,0.2,0.6,0.4l0.1,0.5
		C139.1,63.3,138.9,63.6,138.5,63.6C138.6,63.6,138.5,63.6,138.5,63.6z M137.8,60.7c-0.2,0-0.4-0.1-0.5-0.3l-0.2-0.5
		c-0.1-0.3,0-0.6,0.3-0.6c0.3-0.1,0.6,0,0.6,0.3l0.2,0.5c0.1,0.3,0,0.6-0.3,0.6C138,60.7,137.9,60.7,137.8,60.7z M136.8,57.8
		c-0.2,0-0.4-0.1-0.5-0.3l-0.2-0.5c-0.1-0.3,0-0.6,0.3-0.6c0.3-0.1,0.6,0,0.6,0.3l0.2,0.5c0.1,0.3,0,0.6-0.3,0.6
		C136.9,57.8,136.9,57.8,136.8,57.8z M135.6,55.1c-0.1,0-0.3-0.1-0.4-0.2l-0.3-0.4c-0.2-0.2-0.2-0.5,0-0.7c0.2-0.2,0.5-0.2,0.7,0
		l0.3,0.4c0.2,0.2,0.2,0.5,0,0.7C135.9,55,135.7,55.1,135.6,55.1z M133.5,52.9c-0.1,0-0.3-0.1-0.4-0.2l-0.3-0.4
		c-0.2-0.2-0.2-0.5,0-0.7c0.2-0.2,0.5-0.2,0.7,0l0.3,0.4c0.2,0.2,0.2,0.5,0,0.7C133.8,52.8,133.6,52.9,133.5,52.9z M131.4,50.7
		c-0.1,0-0.3-0.1-0.4-0.2l-0.3-0.4c-0.2-0.2-0.2-0.5,0-0.7c0.2-0.2,0.5-0.2,0.7,0l0.3,0.4c0.2,0.2,0.2,0.5,0,0.7
		C131.7,50.6,131.5,50.7,131.4,50.7z M129.3,48.5c-0.1,0-0.3-0.1-0.4-0.2l-0.3-0.4c-0.2-0.2-0.2-0.5,0-0.7c0.2-0.2,0.5-0.2,0.7,0
		l0.3,0.4c0.2,0.2,0.2,0.5,0,0.7C129.6,48.4,129.5,48.5,129.3,48.5z"/>
	<path class="st1" d="M140.9,102.1C140.8,102.1,140.8,102.1,140.9,102.1l-0.6-0.1c-0.3,0-0.5-0.3-0.4-0.6c0-0.3,0.3-0.5,0.6-0.4
		l0.5,0.1c0.3,0,0.5,0.3,0.4,0.6C141.3,102,141.1,102.1,140.9,102.1z M137.8,101.8C137.8,101.8,137.8,101.8,137.8,101.8l-0.6-0.1
		c-0.3,0-0.5-0.3-0.4-0.6c0-0.3,0.3-0.5,0.6-0.4l0.5,0.1c0.3,0,0.5,0.3,0.4,0.6C138.3,101.6,138.1,101.8,137.8,101.8z M134.8,101.4
		C134.8,101.4,134.8,101.4,134.8,101.4l-0.6-0.1c-0.3,0-0.5-0.3-0.4-0.6c0-0.3,0.3-0.5,0.6-0.4l0.5,0.1c0.3,0,0.5,0.3,0.4,0.6
		C135.3,101.2,135.1,101.4,134.8,101.4z M143.2,101.4c-0.2,0-0.4-0.1-0.5-0.3c-0.1-0.2,0-0.6,0.2-0.7l0.5-0.2c0.2-0.1,0.6,0,0.7,0.2
		c0.1,0.2,0,0.6-0.2,0.7l-0.5,0.2C143.3,101.4,143.3,101.4,143.2,101.4z M145.9,100c-0.2,0-0.4-0.1-0.5-0.3c-0.1-0.2,0-0.6,0.2-0.7
		l0.5-0.2c0.3-0.1,0.6,0,0.7,0.3c0.1,0.3,0,0.6-0.3,0.7l-0.4,0.2C146.1,100,146,100,145.9,100z M132.4,99.8c-0.1,0-0.2,0-0.3-0.1
		l-0.4-0.3c-0.2-0.1-0.3-0.5-0.2-0.7c0.1-0.2,0.5-0.3,0.7-0.2l0.4,0.3c0.2,0.1,0.3,0.5,0.2,0.7C132.7,99.7,132.6,99.8,132.4,99.8z
		 M148.7,98.8c-0.2,0-0.4-0.1-0.5-0.3c-0.1-0.3,0-0.6,0.3-0.7l0.5-0.2c0.3-0.1,0.6,0,0.7,0.3c0.1,0.3,0,0.6-0.3,0.7l-0.5,0.2
		C148.8,98.7,148.7,98.8,148.7,98.8z M129.8,98.2c-0.1,0-0.2,0-0.3-0.1l-0.4-0.3c-0.2-0.1-0.3-0.5-0.2-0.7c0.1-0.2,0.5-0.3,0.7-0.2
		l0.4,0.3c0.2,0.1,0.3,0.5,0.2,0.7C130.1,98.1,129.9,98.2,129.8,98.2z M151.5,97.8c-0.2,0-0.4-0.2-0.5-0.4c-0.1-0.3,0.1-0.5,0.4-0.6
		l0.5-0.1c0.3-0.1,0.5,0.1,0.6,0.4c0.1,0.3-0.1,0.5-0.4,0.6l-0.5,0.1C151.6,97.8,151.5,97.8,151.5,97.8z M154.5,97.1
		c-0.2,0-0.4-0.2-0.5-0.4c-0.1-0.3,0.1-0.5,0.4-0.6l0.5-0.1c0.3-0.1,0.5,0.1,0.6,0.4c0.1,0.3-0.1,0.5-0.4,0.6l-0.5,0.1
		C154.5,97.1,154.5,97.1,154.5,97.1z M127.2,96.6c-0.1,0-0.2,0-0.3-0.1c-0.1,0-0.2-0.1-0.2-0.2l-0.2-0.4c-0.1-0.2,0-0.6,0.2-0.7
		c0.2-0.1,0.6,0,0.7,0.2l0.2,0.4c0.1,0.2,0.1,0.4,0,0.5C127.5,96.5,127.3,96.6,127.2,96.6z M157.3,96.1c-0.2,0-0.3-0.1-0.4-0.2
		c-0.2-0.2-0.1-0.5,0.1-0.7l0.4-0.3c0.2-0.2,0.5-0.1,0.7,0.1c0.2,0.2,0.1,0.5-0.1,0.7l-0.4,0.3C157.5,96.1,157.4,96.1,157.3,96.1z
		 M159.8,94.3c-0.2,0-0.3-0.1-0.4-0.2c-0.2-0.2-0.1-0.5,0.1-0.7l0.4-0.3c0.2-0.2,0.5-0.1,0.7,0.1c0.2,0.2,0.1,0.5-0.1,0.7l-0.4,0.3
		C160,94.3,159.9,94.3,159.8,94.3z M125.7,94c-0.2,0-0.4-0.1-0.4-0.3l-0.2-0.4c-0.1-0.2,0-0.6,0.2-0.7c0.2-0.1,0.6,0,0.7,0.2
		l0.2,0.4c0.1,0.2,0,0.6-0.2,0.7C125.9,93.9,125.8,94,125.7,94z M162,92.2c-0.1,0-0.2,0-0.3-0.1c-0.2-0.2-0.2-0.5,0-0.7l0.3-0.4
		c0.2-0.2,0.5-0.2,0.7,0c0.2,0.2,0.2,0.5,0,0.7l-0.3,0.4C162.2,92.2,162.1,92.2,162,92.2z M124.3,91.3c-0.2,0-0.4-0.1-0.4-0.3l0-0.1
		l-0.2-0.4c-0.1-0.3,0-0.6,0.3-0.7c0.3-0.1,0.6,0,0.7,0.3l0.2,0.4c0.1,0.2,0,0.6-0.2,0.7C124.5,91.3,124.4,91.3,124.3,91.3z
		 M167.5,91L167.5,91c-0.4,0-0.6-0.2-0.6-0.5c0-0.1,0.1-0.3,0.2-0.4l0-0.2c0.1-0.3,0.4-0.4,0.6-0.4c0.3,0.1,0.4,0.3,0.4,0.6
		l-0.1,0.4C168,90.8,167.8,91,167.5,91z M164.9,91h-0.5c-0.3,0-0.5-0.2-0.5-0.5s0.2-0.5,0.5-0.5h0.5c0.3,0,0.5,0.2,0.5,0.5
		S165.2,91,164.9,91z M123.1,88.5c-0.2,0-0.4-0.1-0.5-0.3l-0.2-0.5c-0.1-0.3,0-0.6,0.3-0.7c0.3-0.1,0.6,0,0.7,0.3l0.2,0.5
		c0.1,0.3,0,0.6-0.3,0.7C123.2,88.5,123.2,88.5,123.1,88.5z M168.3,88.1c0,0-0.1,0-0.1,0c-0.3-0.1-0.4-0.3-0.4-0.6l0.1-0.5
		c0.1-0.3,0.3-0.4,0.6-0.4c0.3,0.1,0.4,0.3,0.4,0.6l-0.1,0.5C168.7,88,168.5,88.1,168.3,88.1z M121.9,85.7c-0.2,0-0.4-0.1-0.5-0.3
		l-0.2-0.5c-0.1-0.3,0-0.6,0.3-0.7c0.3-0.1,0.6,0,0.7,0.3l0.2,0.5c0.1,0.3,0,0.6-0.3,0.7C122.1,85.7,122,85.7,121.9,85.7z
		 M167.7,85.4c-0.2,0-0.3-0.1-0.4-0.2l-0.3-0.4c-0.2-0.2-0.1-0.5,0.1-0.7c0.2-0.2,0.5-0.1,0.7,0.1l0.3,0.4c0.2,0.2,0.1,0.5-0.1,0.7
		C168,85.4,167.9,85.4,167.7,85.4z M165.9,83c-0.2,0-0.3-0.1-0.4-0.2l-0.3-0.4c-0.2-0.2-0.1-0.5,0.1-0.7c0.2-0.2,0.5-0.1,0.7,0.1
		l0.3,0.4c0.2,0.2,0.1,0.5-0.1,0.7C166.1,83,166,83,165.9,83z M121.8,82.8c-0.1,0-0.1,0-0.2,0c-0.3-0.1-0.4-0.4-0.3-0.6l0.2-0.5
		c0.1-0.3,0.4-0.4,0.6-0.3c0.3,0.1,0.4,0.4,0.3,0.6l-0.2,0.5C122.2,82.7,122,82.8,121.8,82.8z M163.6,81.1c-0.1,0-0.2,0-0.3-0.1
		l-0.4-0.3c-0.2-0.1-0.3-0.5-0.2-0.7c0.1-0.2,0.5-0.3,0.7-0.2l0.4,0.3c0.2,0.1,0.3,0.5,0.2,0.7C163.9,81,163.8,81.1,163.6,81.1z
		 M122.7,79.9c-0.1,0-0.1,0-0.2,0c-0.3-0.1-0.4-0.4-0.3-0.6l0.2-0.5c0.1-0.3,0.4-0.4,0.6-0.3c0.3,0.1,0.4,0.4,0.3,0.6l-0.2,0.5
		C123.1,79.8,122.9,79.9,122.7,79.9z M161,79.5c-0.1,0-0.2,0-0.3-0.1l-0.4-0.3c-0.2-0.1-0.3-0.5-0.2-0.7c0.1-0.2,0.5-0.3,0.7-0.2
		l0.4,0.3c0.2,0.1,0.3,0.5,0.2,0.7C161.3,79.5,161.2,79.5,161,79.5z M158.1,78.8C158.1,78.8,158.1,78.8,158.1,78.8l-0.6-0.1
		c-0.3,0-0.5-0.3-0.4-0.6c0-0.3,0.3-0.5,0.6-0.4l0.5,0.1c0.3,0,0.5,0.3,0.4,0.6C158.6,78.6,158.4,78.8,158.1,78.8z M155.1,78.3
		C155.1,78.3,155.1,78.3,155.1,78.3l-0.6-0.1c-0.3,0-0.5-0.3-0.4-0.6c0-0.3,0.3-0.5,0.6-0.4l0.5,0.1c0.3,0,0.5,0.3,0.4,0.6
		C155.6,78.2,155.4,78.3,155.1,78.3z M152.1,77.9C152.1,77.9,152,77.9,152.1,77.9l-0.6-0.1c-0.3,0-0.5-0.3-0.4-0.6
		c0-0.3,0.3-0.5,0.6-0.4l0.5,0.1c0.3,0,0.5,0.3,0.4,0.6C152.6,77.7,152.3,77.9,152.1,77.9z M123.6,77c-0.1,0-0.1,0-0.2,0
		c-0.3-0.1-0.4-0.4-0.3-0.6l0.2-0.5c0.1-0.3,0.4-0.4,0.6-0.3c0.3,0.1,0.4,0.4,0.3,0.6l-0.2,0.5C124.1,76.9,123.9,77,123.6,77z
		 M150.9,75.7c-0.2,0-0.5-0.2-0.5-0.4l-0.1-0.5c0-0.3,0.1-0.5,0.4-0.6c0.3,0,0.5,0.1,0.6,0.4l0.1,0.5
		C151.4,75.4,151.2,75.6,150.9,75.7C150.9,75.7,150.9,75.7,150.9,75.7z M124.6,74.2c-0.1,0-0.1,0-0.2,0c-0.3-0.1-0.4-0.4-0.3-0.6
		l0.2-0.5c0.1-0.3,0.4-0.4,0.6-0.3c0.3,0.1,0.4,0.4,0.3,0.6l-0.2,0.5C125,74,124.8,74.2,124.6,74.2z M125.5,71.3c-0.1,0-0.1,0-0.2,0
		c-0.3-0.1-0.4-0.4-0.3-0.6l0.2-0.5c0.1-0.3,0.4-0.4,0.6-0.3c0.3,0.1,0.4,0.4,0.3,0.6l-0.2,0.5C125.9,71.1,125.7,71.3,125.5,71.3z
		 M126.7,68.5c-0.1,0-0.1,0-0.2-0.1c-0.3-0.1-0.4-0.4-0.2-0.7l0.2-0.5c0.1-0.3,0.4-0.4,0.7-0.2c0.3,0.1,0.4,0.4,0.2,0.7l-0.2,0.5
		C127,68.4,126.9,68.5,126.7,68.5z M128,65.7c-0.1,0-0.1,0-0.2-0.1c-0.3-0.1-0.4-0.4-0.2-0.7l0.2-0.5c0.1-0.3,0.4-0.4,0.7-0.2
		c0.3,0.1,0.4,0.4,0.2,0.7l-0.2,0.5C128.4,65.6,128.2,65.7,128,65.7z M129.3,63c-0.1,0-0.1,0-0.2-0.1c-0.3-0.1-0.4-0.4-0.2-0.7
		l0.2-0.5c0.1-0.3,0.4-0.4,0.7-0.2c0.3,0.1,0.4,0.4,0.2,0.7l-0.2,0.5C129.7,62.9,129.5,63,129.3,63z M138.3,62h-0.5
		c-0.3,0-0.5-0.2-0.5-0.5c0-0.3,0.2-0.5,0.5-0.5h0.5c0.3,0,0.5,0.2,0.5,0.5C138.8,61.8,138.6,62,138.3,62z M135.3,62h-0.5
		c-0.3,0-0.5-0.2-0.5-0.5c0-0.3,0.2-0.5,0.5-0.5h0.5c0.3,0,0.5,0.2,0.5,0.5C135.8,61.8,135.5,62,135.3,62z M132.2,62h-0.5
		c-0.3,0-0.5-0.2-0.5-0.5c0-0.3,0.2-0.5,0.5-0.5h0.5c0.3,0,0.5,0.2,0.5,0.5C132.7,61.8,132.5,62,132.2,62z"/>
	<path class="st1" d="M104.9,103.9c-0.2,0-0.4-0.1-0.5-0.3c-0.1-0.3,0.1-0.6,0.3-0.6l0.5-0.2c0.3-0.1,0.6,0.1,0.6,0.3
		c0.1,0.3-0.1,0.6-0.3,0.6l-0.5,0.2C105,103.9,105,103.9,104.9,103.9z M107.8,103c-0.2,0-0.4-0.1-0.5-0.3c-0.1-0.3,0.1-0.6,0.3-0.6
		l0.5-0.2c0.3-0.1,0.6,0.1,0.6,0.3c0.1,0.3-0.1,0.6-0.3,0.6L108,103C107.9,103,107.8,103,107.8,103z M104.2,102.1c0,0-0.1,0-0.1,0
		l-0.5-0.1c-0.3-0.1-0.4-0.3-0.4-0.6c0.1-0.3,0.3-0.4,0.6-0.4l0.5,0.1c0.3,0.1,0.4,0.3,0.4,0.6C104.6,101.9,104.4,102.1,104.2,102.1
		z M110.7,102c-0.2,0-0.4-0.1-0.5-0.3c-0.1-0.3,0.1-0.6,0.3-0.6l0.5-0.2c0.3-0.1,0.6,0.1,0.6,0.3c0.1,0.3-0.1,0.6-0.3,0.6l-0.5,0.2
		C110.8,102,110.7,102,110.7,102z M101.2,101.5c0,0-0.1,0-0.1,0l-0.5-0.1c-0.3-0.1-0.4-0.3-0.4-0.6c0.1-0.3,0.3-0.4,0.6-0.4l0.5,0.1
		c0.3,0.1,0.4,0.3,0.4,0.6C101.6,101.3,101.4,101.5,101.2,101.5z M113.6,101.1c-0.2,0-0.4-0.1-0.5-0.3c-0.1-0.3,0.1-0.6,0.3-0.6
		l0.5-0.2c0.3-0.1,0.6,0.1,0.6,0.3c0.1,0.3-0.1,0.6-0.3,0.6l-0.5,0.2C113.7,101.1,113.6,101.1,113.6,101.1z M116.5,100.2
		c-0.2,0-0.4-0.1-0.5-0.3c-0.1-0.3,0.1-0.6,0.3-0.6l0.5-0.2c0.3-0.1,0.6,0.1,0.6,0.3c0.1,0.3-0.1,0.6-0.3,0.6l-0.5,0.2
		C116.6,100.1,116.5,100.2,116.5,100.2z M119.3,99.2c-0.2,0-0.4-0.1-0.5-0.3c-0.1-0.3,0.1-0.6,0.3-0.6l0.5-0.2
		c0.3-0.1,0.6,0.1,0.6,0.3c0.1,0.3-0.1,0.6-0.3,0.6l-0.5,0.2C119.4,99.2,119.4,99.2,119.3,99.2z M122.2,98.3c-0.2,0-0.4-0.1-0.5-0.3
		c-0.1-0.3,0.1-0.6,0.3-0.6l0.5-0.2c0.3-0.1,0.6,0.1,0.6,0.3c0.1,0.3-0.1,0.6-0.3,0.6l-0.5,0.2C122.3,98.2,122.3,98.3,122.2,98.3z
		 M125.1,97.3c-0.2,0-0.4-0.1-0.5-0.3c-0.1-0.3,0.1-0.6,0.3-0.6l0.5-0.2c0.3-0.1,0.6,0.1,0.6,0.3c0.1,0.3-0.1,0.6-0.3,0.6l-0.5,0.2
		C125.2,97.3,125.2,97.3,125.1,97.3z"/>
	<path class="st1" d="M137.2,148.5c-0.1,0-0.1,0-0.2,0c-0.3-0.1-0.4-0.4-0.3-0.7l0.2-0.5c0.1-0.3,0.4-0.4,0.7-0.3
		c0.3,0.1,0.4,0.4,0.3,0.7l-0.2,0.5C137.6,148.3,137.4,148.5,137.2,148.5z M138.2,145.6c-0.1,0-0.1,0-0.2,0
		c-0.3-0.1-0.4-0.4-0.3-0.7l0.2-0.5c0.1-0.3,0.4-0.4,0.7-0.3c0.3,0.1,0.4,0.4,0.3,0.7l-0.2,0.5C138.6,145.5,138.5,145.6,138.2,145.6
		z M139.3,142.8c-0.1,0-0.1,0-0.2,0c-0.3-0.1-0.4-0.4-0.3-0.7l0.2-0.5c0.1-0.3,0.4-0.4,0.7-0.3c0.3,0.1,0.4,0.4,0.3,0.7l-0.2,0.5
		C139.7,142.7,139.5,142.8,139.3,142.8z M140.4,140c-0.1,0-0.1,0-0.2,0c-0.3-0.1-0.4-0.4-0.3-0.7l0.2-0.5c0.1-0.3,0.4-0.4,0.7-0.3
		c0.3,0.1,0.4,0.4,0.3,0.7l-0.2,0.5C140.8,139.8,140.6,140,140.4,140z M140.6,137.1c-0.2,0-0.4-0.2-0.5-0.4l-0.1-0.5
		c-0.1-0.3,0.1-0.5,0.4-0.6c0.3-0.1,0.5,0.1,0.6,0.4l0.1,0.5c0.1,0.3-0.1,0.5-0.4,0.6C140.7,137.1,140.6,137.1,140.6,137.1z
		 M140.9,134.3c-0.1,0-0.2,0-0.3-0.1c-0.2-0.1-0.3-0.4-0.2-0.7c0.1-0.1,0.2-0.2,0.4-0.3l0.5-0.1c0.3,0,0.5,0.2,0.6,0.4
		c0,0.3-0.2,0.5-0.4,0.6l-0.4,0.1C141,134.3,141,134.3,140.9,134.3z M143.9,133.9c-0.3,0-0.5-0.2-0.5-0.4c0-0.3,0.2-0.5,0.4-0.6
		l0.5-0.1c0.3,0,0.5,0.2,0.6,0.4c0,0.3-0.2,0.5-0.4,0.6L143.9,133.9C144,133.9,144,133.9,143.9,133.9z M146.3,132.7
		c-0.1,0-0.1,0-0.2,0c-0.3-0.1-0.4-0.4-0.3-0.6l0.2-0.5c0.1-0.3,0.4-0.4,0.6-0.3c0.3,0.1,0.4,0.4,0.3,0.6l-0.2,0.5
		C146.7,132.6,146.5,132.7,146.3,132.7z M147.3,129.9c-0.1,0-0.1,0-0.2,0c-0.3-0.1-0.4-0.4-0.3-0.6l0.2-0.5c0.1-0.3,0.4-0.4,0.6-0.3
		c0.3,0.1,0.4,0.4,0.3,0.6l-0.2,0.5C147.7,129.7,147.5,129.9,147.3,129.9z M149,127.5c-0.2,0-0.3-0.1-0.4-0.2
		c-0.1-0.2-0.1-0.5,0.2-0.7l0.4-0.3c0.2-0.1,0.5-0.1,0.7,0.2c0.1,0.2,0.1,0.5-0.2,0.7l-0.4,0.3C149.2,127.5,149.1,127.5,149,127.5z
		 M151.6,125.9c-0.2,0-0.3-0.1-0.4-0.2c-0.1-0.2-0.1-0.5,0.2-0.7l0.4-0.3c0.2-0.1,0.5-0.1,0.7,0.2c0.1,0.2,0.1,0.5-0.2,0.7l-0.4,0.3
		C151.7,125.9,151.6,125.9,151.6,125.9z M152.5,123.5c-0.3,0-0.5-0.2-0.5-0.4l-0.1-0.5c0-0.3,0.2-0.5,0.4-0.6c0.3,0,0.5,0.2,0.6,0.4
		l0.1,0.5C153.1,123.2,152.9,123.5,152.5,123.5C152.6,123.5,152.6,123.5,152.5,123.5z M152.2,120.5c-0.3,0-0.5-0.2-0.5-0.4l-0.1-0.5
		c0-0.3,0.2-0.5,0.4-0.6c0.3,0,0.5,0.2,0.6,0.4l0.1,0.5C152.7,120.2,152.5,120.5,152.2,120.5C152.2,120.5,152.2,120.5,152.2,120.5z
		 M151.8,117.5c-0.3,0-0.5-0.2-0.5-0.4l-0.1-0.5c0-0.3,0.2-0.5,0.4-0.6c0.3,0,0.5,0.2,0.6,0.4l0.1,0.5
		C152.3,117.2,152.1,117.4,151.8,117.5C151.8,117.5,151.8,117.5,151.8,117.5z M150.7,114.7c-0.2,0-0.4-0.1-0.5-0.3l-0.2-0.5
		c-0.1-0.3,0-0.6,0.3-0.7c0.3-0.1,0.6,0,0.7,0.3l0.2,0.5c0.1,0.3,0,0.6-0.3,0.7C150.9,114.6,150.8,114.7,150.7,114.7z M149.5,111.9
		c-0.2,0-0.4-0.1-0.5-0.3l-0.2-0.5c-0.1-0.3,0-0.6,0.3-0.7c0.3-0.1,0.6,0,0.7,0.3l0.2,0.5c0.1,0.3,0,0.6-0.3,0.7
		C149.6,111.9,149.6,111.9,149.5,111.9z M148.3,109.1c-0.2,0-0.4-0.1-0.5-0.3l-0.2-0.5c-0.1-0.3,0-0.6,0.3-0.7
		c0.3-0.1,0.6,0,0.7,0.3l0.2,0.5c0.1,0.3,0,0.6-0.3,0.7C148.4,109.1,148.3,109.1,148.3,109.1z M147.1,106.3c-0.2,0-0.4-0.1-0.5-0.3
		l-0.2-0.5c-0.1-0.3,0-0.6,0.3-0.7c0.3-0.1,0.6,0,0.7,0.3l0.2,0.5c0.1,0.3,0,0.6-0.3,0.7C147.2,106.3,147.1,106.3,147.1,106.3z
		 M146,103.5c-0.3,0-0.5-0.2-0.5-0.5v-0.5c0-0.3,0.2-0.5,0.5-0.5s0.5,0.2,0.5,0.5v0.5C146.5,103.3,146.3,103.5,146,103.5z
		 M146,100.5c-0.3,0-0.5-0.2-0.5-0.5v-0.5c0-0.3,0.2-0.5,0.5-0.5s0.5,0.2,0.5,0.5v0.5C146.5,100.2,146.3,100.5,146,100.5z"/>
</g>
</svg>
